%TF.GenerationSoftware,KiCad,Pcbnew,9.0.2*%
%TF.CreationDate,2025-06-27T23:38:42-07:00*%
%TF.ProjectId,bigMacro,6269674d-6163-4726-9f2e-6b696361645f,rev?*%
%TF.SameCoordinates,Original*%
%TF.FileFunction,Copper,L2,Bot*%
%TF.FilePolarity,Positive*%
%FSLAX46Y46*%
G04 Gerber Fmt 4.6, Leading zero omitted, Abs format (unit mm)*
G04 Created by KiCad (PCBNEW 9.0.2) date 2025-06-27 23:38:42*
%MOMM*%
%LPD*%
G01*
G04 APERTURE LIST*
G04 Aperture macros list*
%AMRoundRect*
0 Rectangle with rounded corners*
0 $1 Rounding radius*
0 $2 $3 $4 $5 $6 $7 $8 $9 X,Y pos of 4 corners*
0 Add a 4 corners polygon primitive as box body*
4,1,4,$2,$3,$4,$5,$6,$7,$8,$9,$2,$3,0*
0 Add four circle primitives for the rounded corners*
1,1,$1+$1,$2,$3*
1,1,$1+$1,$4,$5*
1,1,$1+$1,$6,$7*
1,1,$1+$1,$8,$9*
0 Add four rect primitives between the rounded corners*
20,1,$1+$1,$2,$3,$4,$5,0*
20,1,$1+$1,$4,$5,$6,$7,0*
20,1,$1+$1,$6,$7,$8,$9,0*
20,1,$1+$1,$8,$9,$2,$3,0*%
G04 Aperture macros list end*
%TA.AperFunction,ComponentPad*%
%ADD10C,2.200000*%
%TD*%
%TA.AperFunction,SMDPad,CuDef*%
%ADD11R,0.850000X1.600000*%
%TD*%
%TA.AperFunction,SMDPad,CuDef*%
%ADD12RoundRect,0.152400X1.063600X0.609600X-1.063600X0.609600X-1.063600X-0.609600X1.063600X-0.609600X0*%
%TD*%
%TA.AperFunction,ComponentPad*%
%ADD13C,1.524000*%
%TD*%
%TA.AperFunction,SMDPad,CuDef*%
%ADD14RoundRect,0.152400X-1.063600X-0.609600X1.063600X-0.609600X1.063600X0.609600X-1.063600X0.609600X0*%
%TD*%
%TA.AperFunction,ViaPad*%
%ADD15C,0.600000*%
%TD*%
%TA.AperFunction,Conductor*%
%ADD16C,0.200000*%
%TD*%
G04 APERTURE END LIST*
D10*
%TO.P,MX15,1,COL*%
%TO.N,/COL2*%
X81915000Y-93345000D03*
%TO.P,MX15,2,ROW*%
%TO.N,Net-(D17-A)*%
X75565000Y-95885000D03*
%TD*%
%TO.P,MX9,1,COL*%
%TO.N,/COL0*%
X43815000Y-74295000D03*
%TO.P,MX9,2,ROW*%
%TO.N,Net-(D11-A)*%
X37465000Y-76835000D03*
%TD*%
%TO.P,MX5,1,COL*%
%TO.N,/COL2*%
X81915000Y-36195000D03*
%TO.P,MX5,2,ROW*%
%TO.N,Net-(D7-A)*%
X75565000Y-38735000D03*
%TD*%
%TO.P,MX6,1,COL*%
%TO.N,/COL2*%
X81915000Y-55245000D03*
%TO.P,MX6,2,ROW*%
%TO.N,Net-(D8-A)*%
X75565000Y-57785000D03*
%TD*%
%TO.P,MX3,1,COL*%
%TO.N,/COL0*%
X43815000Y-55245000D03*
%TO.P,MX3,2,ROW*%
%TO.N,Net-(D3-A)*%
X37465000Y-57785000D03*
%TD*%
%TO.P,MX1,1,COL*%
%TO.N,/COL0*%
X43815000Y-36195000D03*
%TO.P,MX1,2,ROW*%
%TO.N,Net-(D1-A)*%
X37465000Y-38735000D03*
%TD*%
%TO.P,MX4,1,COL*%
%TO.N,/COL1*%
X62706250Y-55245000D03*
%TO.P,MX4,2,ROW*%
%TO.N,Net-(D4-A)*%
X56356250Y-57785000D03*
%TD*%
%TO.P,MX2,1,COL*%
%TO.N,/COL1*%
X62865000Y-36195000D03*
%TO.P,MX2,2,ROW*%
%TO.N,Net-(D2-A)*%
X56515000Y-38735000D03*
%TD*%
%TO.P,MX14,1,COL*%
%TO.N,/COL1*%
X62865000Y-93345000D03*
%TO.P,MX14,2,ROW*%
%TO.N,Net-(D16-A)*%
X56515000Y-95885000D03*
%TD*%
%TO.P,MX11,1,COL*%
%TO.N,/COL2*%
X81915000Y-74295000D03*
%TO.P,MX11,2,ROW*%
%TO.N,Net-(D13-A)*%
X75565000Y-76835000D03*
%TD*%
%TO.P,MX12,1,COL*%
%TO.N,/COL3*%
X100965000Y-74295000D03*
%TO.P,MX12,2,ROW*%
%TO.N,Net-(D14-A)*%
X94615000Y-76835000D03*
%TD*%
%TO.P,MX8,1,COL*%
%TO.N,/COL3*%
X100965000Y-55245000D03*
%TO.P,MX8,2,ROW*%
%TO.N,Net-(D10-A)*%
X94615000Y-57785000D03*
%TD*%
%TO.P,MX13,1,COL*%
%TO.N,/COL0*%
X43815000Y-93345000D03*
%TO.P,MX13,2,ROW*%
%TO.N,Net-(D15-A)*%
X37465000Y-95885000D03*
%TD*%
%TO.P,MX16,1,COL*%
%TO.N,/COL3*%
X100965000Y-93345000D03*
%TO.P,MX16,2,ROW*%
%TO.N,Net-(D18-A)*%
X94615000Y-95885000D03*
%TD*%
%TO.P,MX10,1,COL*%
%TO.N,/COL1*%
X62865000Y-74295000D03*
%TO.P,MX10,2,ROW*%
%TO.N,Net-(D12-A)*%
X56515000Y-76835000D03*
%TD*%
D11*
%TO.P,D5,1,DOUT*%
%TO.N,Net-(D5-DOUT)*%
X124406250Y-83668750D03*
%TO.P,D5,2,VSS*%
%TO.N,Net-(D5-VSS)*%
X122656250Y-83668750D03*
%TO.P,D5,3,DIN*%
%TO.N,Net-(D5-DIN)*%
X122656250Y-80168750D03*
%TO.P,D5,4,VDD*%
%TO.N,Net-(D5-VDD)*%
X124406250Y-80168750D03*
%TD*%
%TO.P,D6,1,DOUT*%
%TO.N,unconnected-(D6-DOUT-Pad1)*%
X115593750Y-83506250D03*
%TO.P,D6,2,VSS*%
%TO.N,Net-(D5-VSS)*%
X113843750Y-83506250D03*
%TO.P,D6,3,DIN*%
%TO.N,Net-(D5-DOUT)*%
X113843750Y-80006250D03*
%TO.P,D6,4,VDD*%
%TO.N,Net-(D5-VDD)*%
X115593750Y-80006250D03*
%TD*%
D12*
%TO.P,U2,1,GPIO26/ADC0/A0*%
%TO.N,unconnected-(U2-GPIO26{slash}ADC0{slash}A0-Pad1)*%
X112988750Y-104933750D03*
D13*
X113823750Y-104933750D03*
D12*
%TO.P,U2,2,GPIO27/ADC1/A1*%
%TO.N,unconnected-(U2-GPIO27{slash}ADC1{slash}A1-Pad2)*%
X112988750Y-102393750D03*
D13*
X113823750Y-102393750D03*
D12*
%TO.P,U2,3,GPIO28/ADC2/A2*%
%TO.N,/ROW2*%
X112988750Y-99853750D03*
D13*
X113823750Y-99853750D03*
D12*
%TO.P,U2,4,GPIO29/ADC3/A3*%
%TO.N,/ROW3*%
X112988750Y-97313750D03*
D13*
X113823750Y-97313750D03*
D12*
%TO.P,U2,5,GPIO6/SDA*%
%TO.N,Net-(D5-DIN)*%
X112988750Y-94773750D03*
D13*
X113823750Y-94773750D03*
D12*
%TO.P,U2,6,GPIO7/SCL*%
%TO.N,/COL2*%
X112988750Y-92233750D03*
D13*
X113823750Y-92233750D03*
D12*
%TO.P,U2,7,GPIO0/TX*%
%TO.N,/COL3*%
X112988750Y-89693750D03*
D13*
X113823750Y-89693750D03*
%TO.P,U2,8,GPIO1/RX*%
%TO.N,/ROW0*%
X129063750Y-89693750D03*
D14*
X129898750Y-89693750D03*
D13*
%TO.P,U2,9,GPIO2/SCK*%
%TO.N,/ROW1*%
X129063750Y-92233750D03*
D14*
X129898750Y-92233750D03*
D13*
%TO.P,U2,10,GPIO4/MISO*%
%TO.N,/COL1*%
X129063750Y-94773750D03*
D14*
X129898750Y-94773750D03*
D13*
%TO.P,U2,11,GPIO3/MOSI*%
%TO.N,/COL0*%
X129063750Y-97313750D03*
D14*
X129898750Y-97313750D03*
D13*
%TO.P,U2,12,3V3*%
%TO.N,unconnected-(U2-3V3-Pad12)*%
X129063750Y-99853750D03*
D14*
X129898750Y-99853750D03*
D13*
%TO.P,U2,13,GND*%
%TO.N,GND*%
X129063750Y-102393750D03*
D14*
X129898750Y-102393750D03*
D13*
%TO.P,U2,14,VBUS*%
%TO.N,+5V*%
X129063750Y-104933750D03*
D14*
X129898750Y-104933750D03*
%TD*%
D15*
%TO.N,/ROW0*%
X106362500Y-50068750D03*
%TO.N,/ROW1*%
X106631250Y-69181250D03*
%TO.N,/ROW2*%
X106362500Y-88168750D03*
%TO.N,/ROW3*%
X107156250Y-107218750D03*
%TD*%
D16*
%TO.N,/ROW0*%
X129063750Y-72770000D02*
X129063750Y-89693750D01*
X106362500Y-50068750D02*
X129063750Y-72770000D01*
%TO.N,/ROW1*%
X128000750Y-91170750D02*
X129063750Y-92233750D01*
X128000750Y-81936250D02*
X128000750Y-91170750D01*
X106631250Y-69181250D02*
X115245750Y-69181250D01*
X115245750Y-69181250D02*
X128000750Y-81936250D01*
%TO.N,/COL0*%
X43815000Y-93345000D02*
X43815000Y-36195000D01*
%TO.N,/COL1*%
X62865000Y-36195000D02*
X62865000Y-93345000D01*
%TO.N,Net-(D5-VDD)*%
X123305250Y-79067750D02*
X116532250Y-79067750D01*
X116532250Y-79067750D02*
X115593750Y-80006250D01*
X124406250Y-80168750D02*
X123305250Y-79067750D01*
%TO.N,Net-(D5-DOUT)*%
X114944750Y-81107250D02*
X121844750Y-81107250D01*
X121844750Y-81107250D02*
X124406250Y-83668750D01*
X113843750Y-80006250D02*
X114944750Y-81107250D01*
%TO.N,Net-(D5-DIN)*%
X122656250Y-80168750D02*
X125132250Y-82644750D01*
X125132250Y-82644750D02*
X125132250Y-84769750D01*
X115128250Y-94773750D02*
X113823750Y-94773750D01*
X125132250Y-84769750D02*
X115128250Y-94773750D01*
%TO.N,Net-(D5-VSS)*%
X121392750Y-82405250D02*
X114944750Y-82405250D01*
X122656250Y-83668750D02*
X121392750Y-82405250D01*
X114944750Y-82405250D02*
X113843750Y-83506250D01*
%TO.N,/COL2*%
X81915000Y-36195000D02*
X81915000Y-93345000D01*
%TO.N,/COL3*%
X106113557Y-87567750D02*
X100965000Y-92716307D01*
X113823750Y-89693750D02*
X111697750Y-87567750D01*
X100965000Y-92716307D02*
X100965000Y-93345000D01*
X100965000Y-55245000D02*
X100965000Y-74295000D01*
X111697750Y-87567750D02*
X106113557Y-87567750D01*
X100965000Y-74295000D02*
X100965000Y-93345000D01*
%TO.N,/ROW2*%
X106362500Y-88168750D02*
X106362500Y-93227500D01*
X112988750Y-99853750D02*
X113823750Y-99853750D01*
X106362500Y-93227500D02*
X112988750Y-99853750D01*
%TO.N,/ROW3*%
X114886750Y-100294060D02*
X114886750Y-98376750D01*
X107156250Y-105568750D02*
X111808250Y-100916750D01*
X107156250Y-107218750D02*
X107156250Y-105568750D01*
X114886750Y-98376750D02*
X113823750Y-97313750D01*
X111808250Y-100916750D02*
X114264060Y-100916750D01*
X114264060Y-100916750D02*
X114886750Y-100294060D01*
%TD*%
M02*
