%TF.GenerationSoftware,KiCad,Pcbnew,9.0.2*%
%TF.CreationDate,2025-06-27T23:38:42-07:00*%
%TF.ProjectId,bigMacro,6269674d-6163-4726-9f2e-6b696361645f,rev?*%
%TF.SameCoordinates,Original*%
%TF.FileFunction,Soldermask,Bot*%
%TF.FilePolarity,Negative*%
%FSLAX46Y46*%
G04 Gerber Fmt 4.6, Leading zero omitted, Abs format (unit mm)*
G04 Created by KiCad (PCBNEW 9.0.2) date 2025-06-27 23:38:42*
%MOMM*%
%LPD*%
G01*
G04 APERTURE LIST*
G04 Aperture macros list*
%AMRoundRect*
0 Rectangle with rounded corners*
0 $1 Rounding radius*
0 $2 $3 $4 $5 $6 $7 $8 $9 X,Y pos of 4 corners*
0 Add a 4 corners polygon primitive as box body*
4,1,4,$2,$3,$4,$5,$6,$7,$8,$9,$2,$3,0*
0 Add four circle primitives for the rounded corners*
1,1,$1+$1,$2,$3*
1,1,$1+$1,$4,$5*
1,1,$1+$1,$6,$7*
1,1,$1+$1,$8,$9*
0 Add four rect primitives between the rounded corners*
20,1,$1+$1,$2,$3,$4,$5,0*
20,1,$1+$1,$4,$5,$6,$7,0*
20,1,$1+$1,$6,$7,$8,$9,0*
20,1,$1+$1,$8,$9,$2,$3,0*%
G04 Aperture macros list end*
%ADD10C,1.700000*%
%ADD11C,4.000000*%
%ADD12C,2.200000*%
%ADD13R,0.850000X1.600000*%
%ADD14RoundRect,0.152400X1.063600X0.609600X-1.063600X0.609600X-1.063600X-0.609600X1.063600X-0.609600X0*%
%ADD15C,1.524000*%
%ADD16RoundRect,0.152400X-1.063600X-0.609600X1.063600X-0.609600X1.063600X0.609600X-1.063600X0.609600X0*%
G04 APERTURE END LIST*
D10*
%TO.C,MX15*%
X74295000Y-98425000D03*
D11*
X79375000Y-98425000D03*
D10*
X84455000Y-98425000D03*
D12*
X81915000Y-93345000D03*
X75565000Y-95885000D03*
%TD*%
D10*
%TO.C,MX9*%
X36195000Y-79375000D03*
D11*
X41275000Y-79375000D03*
D10*
X46355000Y-79375000D03*
D12*
X43815000Y-74295000D03*
X37465000Y-76835000D03*
%TD*%
D10*
%TO.C,MX5*%
X74295000Y-41275000D03*
D11*
X79375000Y-41275000D03*
D10*
X84455000Y-41275000D03*
D12*
X81915000Y-36195000D03*
X75565000Y-38735000D03*
%TD*%
D10*
%TO.C,MX6*%
X74295000Y-60325000D03*
D11*
X79375000Y-60325000D03*
D10*
X84455000Y-60325000D03*
D12*
X81915000Y-55245000D03*
X75565000Y-57785000D03*
%TD*%
D10*
%TO.C,MX3*%
X36195000Y-60325000D03*
D11*
X41275000Y-60325000D03*
D10*
X46355000Y-60325000D03*
D12*
X43815000Y-55245000D03*
X37465000Y-57785000D03*
%TD*%
D10*
%TO.C,MX1*%
X36195000Y-41275000D03*
D11*
X41275000Y-41275000D03*
D10*
X46355000Y-41275000D03*
D12*
X43815000Y-36195000D03*
X37465000Y-38735000D03*
%TD*%
D10*
%TO.C,MX4*%
X55086250Y-60325000D03*
D11*
X60166250Y-60325000D03*
D10*
X65246250Y-60325000D03*
D12*
X62706250Y-55245000D03*
X56356250Y-57785000D03*
%TD*%
D10*
%TO.C,MX2*%
X55245000Y-41275000D03*
D11*
X60325000Y-41275000D03*
D10*
X65405000Y-41275000D03*
D12*
X62865000Y-36195000D03*
X56515000Y-38735000D03*
%TD*%
D10*
%TO.C,MX14*%
X55245000Y-98425000D03*
D11*
X60325000Y-98425000D03*
D10*
X65405000Y-98425000D03*
D12*
X62865000Y-93345000D03*
X56515000Y-95885000D03*
%TD*%
D10*
%TO.C,MX11*%
X74295000Y-79375000D03*
D11*
X79375000Y-79375000D03*
D10*
X84455000Y-79375000D03*
D12*
X81915000Y-74295000D03*
X75565000Y-76835000D03*
%TD*%
D10*
%TO.C,MX12*%
X93345000Y-79375000D03*
D11*
X98425000Y-79375000D03*
D10*
X103505000Y-79375000D03*
D12*
X100965000Y-74295000D03*
X94615000Y-76835000D03*
%TD*%
D10*
%TO.C,MX8*%
X93345000Y-60325000D03*
D11*
X98425000Y-60325000D03*
D10*
X103505000Y-60325000D03*
D12*
X100965000Y-55245000D03*
X94615000Y-57785000D03*
%TD*%
D10*
%TO.C,MX13*%
X36195000Y-98425000D03*
D11*
X41275000Y-98425000D03*
D10*
X46355000Y-98425000D03*
D12*
X43815000Y-93345000D03*
X37465000Y-95885000D03*
%TD*%
D10*
%TO.C,MX16*%
X93345000Y-98425000D03*
D11*
X98425000Y-98425000D03*
D10*
X103505000Y-98425000D03*
D12*
X100965000Y-93345000D03*
X94615000Y-95885000D03*
%TD*%
D10*
%TO.C,MX10*%
X55245000Y-79375000D03*
D11*
X60325000Y-79375000D03*
D10*
X65405000Y-79375000D03*
D12*
X62865000Y-74295000D03*
X56515000Y-76835000D03*
%TD*%
D13*
%TO.C,D5*%
X124406250Y-83668750D03*
X122656250Y-83668750D03*
X122656250Y-80168750D03*
X124406250Y-80168750D03*
%TD*%
%TO.C,D6*%
X115593750Y-83506250D03*
X113843750Y-83506250D03*
X113843750Y-80006250D03*
X115593750Y-80006250D03*
%TD*%
D14*
%TO.C,U2*%
X112988750Y-104933750D03*
D15*
X113823750Y-104933750D03*
D14*
X112988750Y-102393750D03*
D15*
X113823750Y-102393750D03*
D14*
X112988750Y-99853750D03*
D15*
X113823750Y-99853750D03*
D14*
X112988750Y-97313750D03*
D15*
X113823750Y-97313750D03*
D14*
X112988750Y-94773750D03*
D15*
X113823750Y-94773750D03*
D14*
X112988750Y-92233750D03*
D15*
X113823750Y-92233750D03*
D14*
X112988750Y-89693750D03*
D15*
X113823750Y-89693750D03*
X129063750Y-89693750D03*
D16*
X129898750Y-89693750D03*
D15*
X129063750Y-92233750D03*
D16*
X129898750Y-92233750D03*
D15*
X129063750Y-94773750D03*
D16*
X129898750Y-94773750D03*
D15*
X129063750Y-97313750D03*
D16*
X129898750Y-97313750D03*
D15*
X129063750Y-99853750D03*
D16*
X129898750Y-99853750D03*
D15*
X129063750Y-102393750D03*
D16*
X129898750Y-102393750D03*
D15*
X129063750Y-104933750D03*
D16*
X129898750Y-104933750D03*
%TD*%
M02*
