M48
; DRILL file {KiCad 9.0.2} date 2025-06-27T23:38:41-0700
; FORMAT={-:-/ absolute / metric / decimal}
; #@! TF.CreationDate,2025-06-27T23:38:41-07:00
; #@! TF.GenerationSoftware,Kicad,Pcbnew,9.0.2
; #@! TF.FileFunction,Plated,1,2,PTH
FMAT,2
METRIC
; #@! TA.AperFunction,Plated,PTH,ViaDrill
T1C0.300
; #@! TA.AperFunction,Plated,PTH,ComponentDrill
T2C0.889
; #@! TA.AperFunction,Plated,PTH,ComponentDrill
T3C1.500
%
G90
G05
T1
X106.362Y-50.069
X106.362Y-88.169
X106.631Y-69.181
X107.156Y-107.219
T2
X113.824Y-89.694
X113.824Y-92.234
X113.824Y-94.774
X113.824Y-97.314
X113.824Y-99.854
X113.824Y-102.394
X113.824Y-104.934
X129.064Y-89.694
X129.064Y-92.234
X129.064Y-94.774
X129.064Y-97.314
X129.064Y-99.854
X129.064Y-102.394
X129.064Y-104.934
T3
X37.465Y-38.735
X37.465Y-57.785
X37.465Y-76.835
X37.465Y-95.885
X43.815Y-36.195
X43.815Y-55.245
X43.815Y-74.295
X43.815Y-93.345
X56.356Y-57.785
X56.515Y-38.735
X56.515Y-76.835
X56.515Y-95.885
X62.706Y-55.245
X62.865Y-36.195
X62.865Y-74.295
X62.865Y-93.345
X75.565Y-38.735
X75.565Y-57.785
X75.565Y-76.835
X75.565Y-95.885
X81.915Y-36.195
X81.915Y-55.245
X81.915Y-74.295
X81.915Y-93.345
X94.615Y-57.785
X94.615Y-76.835
X94.615Y-95.885
X100.965Y-55.245
X100.965Y-74.295
X100.965Y-93.345
M30
