%TF.GenerationSoftware,KiCad,Pcbnew,9.0.2*%
%TF.CreationDate,2025-06-27T23:38:42-07:00*%
%TF.ProjectId,bigMacro,6269674d-6163-4726-9f2e-6b696361645f,rev?*%
%TF.SameCoordinates,Original*%
%TF.FileFunction,Legend,Bot*%
%TF.FilePolarity,Positive*%
%FSLAX46Y46*%
G04 Gerber Fmt 4.6, Leading zero omitted, Abs format (unit mm)*
G04 Created by KiCad (PCBNEW 9.0.2) date 2025-06-27 23:38:42*
%MOMM*%
%LPD*%
G01*
G04 APERTURE LIST*
%ADD10C,0.150000*%
%ADD11C,0.120000*%
%ADD12C,0.127000*%
%ADD13C,0.100000*%
%ADD14C,0.504000*%
G04 APERTURE END LIST*
D10*
X126736069Y-81180655D02*
X125736069Y-81180655D01*
X125736069Y-81180655D02*
X125736069Y-81418750D01*
X125736069Y-81418750D02*
X125783688Y-81561607D01*
X125783688Y-81561607D02*
X125878926Y-81656845D01*
X125878926Y-81656845D02*
X125974164Y-81704464D01*
X125974164Y-81704464D02*
X126164640Y-81752083D01*
X126164640Y-81752083D02*
X126307497Y-81752083D01*
X126307497Y-81752083D02*
X126497973Y-81704464D01*
X126497973Y-81704464D02*
X126593211Y-81656845D01*
X126593211Y-81656845D02*
X126688450Y-81561607D01*
X126688450Y-81561607D02*
X126736069Y-81418750D01*
X126736069Y-81418750D02*
X126736069Y-81180655D01*
X125736069Y-82656845D02*
X125736069Y-82180655D01*
X125736069Y-82180655D02*
X126212259Y-82133036D01*
X126212259Y-82133036D02*
X126164640Y-82180655D01*
X126164640Y-82180655D02*
X126117021Y-82275893D01*
X126117021Y-82275893D02*
X126117021Y-82513988D01*
X126117021Y-82513988D02*
X126164640Y-82609226D01*
X126164640Y-82609226D02*
X126212259Y-82656845D01*
X126212259Y-82656845D02*
X126307497Y-82704464D01*
X126307497Y-82704464D02*
X126545592Y-82704464D01*
X126545592Y-82704464D02*
X126640830Y-82656845D01*
X126640830Y-82656845D02*
X126688450Y-82609226D01*
X126688450Y-82609226D02*
X126736069Y-82513988D01*
X126736069Y-82513988D02*
X126736069Y-82275893D01*
X126736069Y-82275893D02*
X126688450Y-82180655D01*
X126688450Y-82180655D02*
X126640830Y-82133036D01*
X124043954Y-84890178D02*
X124043954Y-85347321D01*
X124043954Y-85118749D02*
X124843954Y-85118749D01*
X124843954Y-85118749D02*
X124729669Y-85194940D01*
X124729669Y-85194940D02*
X124653478Y-85271130D01*
X124653478Y-85271130D02*
X124615383Y-85347321D01*
X117925872Y-81072945D02*
X116925872Y-81072945D01*
X116925872Y-81072945D02*
X116925872Y-81311040D01*
X116925872Y-81311040D02*
X116973491Y-81453897D01*
X116973491Y-81453897D02*
X117068729Y-81549135D01*
X117068729Y-81549135D02*
X117163967Y-81596754D01*
X117163967Y-81596754D02*
X117354443Y-81644373D01*
X117354443Y-81644373D02*
X117497300Y-81644373D01*
X117497300Y-81644373D02*
X117687776Y-81596754D01*
X117687776Y-81596754D02*
X117783014Y-81549135D01*
X117783014Y-81549135D02*
X117878253Y-81453897D01*
X117878253Y-81453897D02*
X117925872Y-81311040D01*
X117925872Y-81311040D02*
X117925872Y-81072945D01*
X116925872Y-82501516D02*
X116925872Y-82311040D01*
X116925872Y-82311040D02*
X116973491Y-82215802D01*
X116973491Y-82215802D02*
X117021110Y-82168183D01*
X117021110Y-82168183D02*
X117163967Y-82072945D01*
X117163967Y-82072945D02*
X117354443Y-82025326D01*
X117354443Y-82025326D02*
X117735395Y-82025326D01*
X117735395Y-82025326D02*
X117830633Y-82072945D01*
X117830633Y-82072945D02*
X117878253Y-82120564D01*
X117878253Y-82120564D02*
X117925872Y-82215802D01*
X117925872Y-82215802D02*
X117925872Y-82406278D01*
X117925872Y-82406278D02*
X117878253Y-82501516D01*
X117878253Y-82501516D02*
X117830633Y-82549135D01*
X117830633Y-82549135D02*
X117735395Y-82596754D01*
X117735395Y-82596754D02*
X117497300Y-82596754D01*
X117497300Y-82596754D02*
X117402062Y-82549135D01*
X117402062Y-82549135D02*
X117354443Y-82501516D01*
X117354443Y-82501516D02*
X117306824Y-82406278D01*
X117306824Y-82406278D02*
X117306824Y-82215802D01*
X117306824Y-82215802D02*
X117354443Y-82120564D01*
X117354443Y-82120564D02*
X117402062Y-82072945D01*
X117402062Y-82072945D02*
X117497300Y-82025326D01*
X115231454Y-84727678D02*
X115231454Y-85184821D01*
X115231454Y-84956249D02*
X116031454Y-84956249D01*
X116031454Y-84956249D02*
X115917169Y-85032440D01*
X115917169Y-85032440D02*
X115840978Y-85108630D01*
X115840978Y-85108630D02*
X115802883Y-85184821D01*
D11*
%TO.C,D5*%
X121531250Y-84718750D02*
X121531250Y-79718750D01*
X122131250Y-79118750D02*
X121531250Y-79718750D01*
X122131250Y-79118750D02*
X125531250Y-79118750D01*
X125531250Y-84718750D02*
X121531250Y-84718750D01*
X125531250Y-84718750D02*
X125531250Y-79118750D01*
%TO.C,D6*%
X112718750Y-84556250D02*
X112718750Y-79556250D01*
X113318750Y-78956250D02*
X112718750Y-79556250D01*
X113318750Y-78956250D02*
X116718750Y-78956250D01*
X116718750Y-84556250D02*
X112718750Y-84556250D01*
X116718750Y-84556250D02*
X116718750Y-78956250D01*
D12*
%TO.C,U2*%
X112553750Y-88804750D02*
X112553750Y-105949750D01*
X114458750Y-86899750D02*
X128428750Y-86899750D01*
X116948750Y-107854750D02*
X116952478Y-108765022D01*
X117452478Y-109264750D02*
X125447750Y-109264750D01*
X125947750Y-108764750D02*
X125947750Y-107854750D01*
D13*
X128428750Y-107854750D02*
X114458750Y-107854750D01*
D12*
X128428750Y-107854750D02*
X114458750Y-107854750D01*
X130333750Y-88804750D02*
X130333750Y-105949750D01*
X112553750Y-88804750D02*
G75*
G02*
X114458750Y-86899750I1905001J-1D01*
G01*
X114458750Y-107854750D02*
G75*
G02*
X112553750Y-105949750I1J1905001D01*
G01*
X117452478Y-109264750D02*
G75*
G02*
X116952477Y-108765022I18J500019D01*
G01*
X125947750Y-108764750D02*
G75*
G02*
X125447750Y-109264750I-500000J0D01*
G01*
X128428750Y-86899750D02*
G75*
G02*
X130333750Y-88804750I0J-1905000D01*
G01*
X130333750Y-105949750D02*
G75*
G02*
X128428750Y-107854750I-1905000J0D01*
G01*
D14*
X112745750Y-107613750D02*
G75*
G02*
X112241750Y-107613750I-252000J0D01*
G01*
X112241750Y-107613750D02*
G75*
G02*
X112745750Y-107613750I252000J0D01*
G01*
X113888750Y-106733750D02*
G75*
G02*
X113384750Y-106733750I-252000J0D01*
G01*
X113384750Y-106733750D02*
G75*
G02*
X113888750Y-106733750I252000J0D01*
G01*
%TD*%
M02*
