M48
; DRILL file {KiCad 9.0.2} date 2025-06-27T23:38:41-0700
; FORMAT={-:-/ absolute / metric / decimal}
; #@! TF.CreationDate,2025-06-27T23:38:41-07:00
; #@! TF.GenerationSoftware,Kicad,Pcbnew,9.0.2
; #@! TF.FileFunction,NonPlated,1,2,NPTH
FMAT,2
METRIC
; #@! TA.AperFunction,NonPlated,NPTH,ComponentDrill
T1C1.700
; #@! TA.AperFunction,NonPlated,NPTH,ComponentDrill
T2C4.000
%
G90
G05
T1
X36.195Y-41.275
X36.195Y-60.325
X36.195Y-79.375
X36.195Y-98.425
X46.355Y-41.275
X46.355Y-60.325
X46.355Y-79.375
X46.355Y-98.425
X55.086Y-60.325
X55.245Y-41.275
X55.245Y-79.375
X55.245Y-98.425
X65.246Y-60.325
X65.405Y-41.275
X65.405Y-79.375
X65.405Y-98.425
X74.295Y-41.275
X74.295Y-60.325
X74.295Y-79.375
X74.295Y-98.425
X84.455Y-41.275
X84.455Y-60.325
X84.455Y-79.375
X84.455Y-98.425
X93.345Y-60.325
X93.345Y-79.375
X93.345Y-98.425
X103.505Y-60.325
X103.505Y-79.375
X103.505Y-98.425
T2
X41.275Y-41.275
X41.275Y-60.325
X41.275Y-79.375
X41.275Y-98.425
X60.166Y-60.325
X60.325Y-41.275
X60.325Y-79.375
X60.325Y-98.425
X79.375Y-41.275
X79.375Y-60.325
X79.375Y-79.375
X79.375Y-98.425
X98.425Y-60.325
X98.425Y-79.375
X98.425Y-98.425
M30
