%TF.GenerationSoftware,KiCad,Pcbnew,9.0.2*%
%TF.CreationDate,2025-06-27T23:38:42-07:00*%
%TF.ProjectId,bigMacro,6269674d-6163-4726-9f2e-6b696361645f,rev?*%
%TF.SameCoordinates,Original*%
%TF.FileFunction,Copper,L1,Top*%
%TF.FilePolarity,Positive*%
%FSLAX46Y46*%
G04 Gerber Fmt 4.6, Leading zero omitted, Abs format (unit mm)*
G04 Created by KiCad (PCBNEW 9.0.2) date 2025-06-27 23:38:42*
%MOMM*%
%LPD*%
G01*
G04 APERTURE LIST*
G04 Aperture macros list*
%AMRoundRect*
0 Rectangle with rounded corners*
0 $1 Rounding radius*
0 $2 $3 $4 $5 $6 $7 $8 $9 X,Y pos of 4 corners*
0 Add a 4 corners polygon primitive as box body*
4,1,4,$2,$3,$4,$5,$6,$7,$8,$9,$2,$3,0*
0 Add four circle primitives for the rounded corners*
1,1,$1+$1,$2,$3*
1,1,$1+$1,$4,$5*
1,1,$1+$1,$6,$7*
1,1,$1+$1,$8,$9*
0 Add four rect primitives between the rounded corners*
20,1,$1+$1,$2,$3,$4,$5,0*
20,1,$1+$1,$4,$5,$6,$7,0*
20,1,$1+$1,$6,$7,$8,$9,0*
20,1,$1+$1,$8,$9,$2,$3,0*%
G04 Aperture macros list end*
%TA.AperFunction,EtchedComponent*%
%ADD10C,0.000000*%
%TD*%
%TA.AperFunction,ComponentPad*%
%ADD11C,2.200000*%
%TD*%
%TA.AperFunction,SMDPad,CuDef*%
%ADD12RoundRect,0.225000X0.375000X-0.225000X0.375000X0.225000X-0.375000X0.225000X-0.375000X-0.225000X0*%
%TD*%
%TA.AperFunction,ComponentPad*%
%ADD13C,1.524000*%
%TD*%
%TA.AperFunction,ViaPad*%
%ADD14C,0.600000*%
%TD*%
%TA.AperFunction,Conductor*%
%ADD15C,0.200000*%
%TD*%
G04 APERTURE END LIST*
D10*
%TA.AperFunction,EtchedComponent*%
%TO.C,G\u002A\u002A\u002A*%
G36*
X123079992Y-40439661D02*
G01*
X123079992Y-40582760D01*
X123008443Y-40582760D01*
X122936894Y-40582760D01*
X122936894Y-40439661D01*
X122936894Y-40296563D01*
X123008443Y-40296563D01*
X123079992Y-40296563D01*
X123079992Y-40439661D01*
G37*
%TD.AperFunction*%
%TA.AperFunction,EtchedComponent*%
G36*
X123223091Y-40725858D02*
G01*
X123223091Y-40868957D01*
X123151542Y-40868957D01*
X123079992Y-40868957D01*
X123079992Y-40725858D01*
X123079992Y-40582760D01*
X123151542Y-40582760D01*
X123223091Y-40582760D01*
X123223091Y-40725858D01*
G37*
%TD.AperFunction*%
%TA.AperFunction,EtchedComponent*%
G36*
X123366189Y-41012056D02*
G01*
X123366189Y-41155154D01*
X123294640Y-41155154D01*
X123223091Y-41155154D01*
X123223091Y-41012056D01*
X123223091Y-40868957D01*
X123294640Y-40868957D01*
X123366189Y-40868957D01*
X123366189Y-41012056D01*
G37*
%TD.AperFunction*%
%TA.AperFunction,EtchedComponent*%
G36*
X123509288Y-41226704D02*
G01*
X123509288Y-41298253D01*
X123437739Y-41298253D01*
X123366189Y-41298253D01*
X123366189Y-41226704D01*
X123366189Y-41155154D01*
X123437739Y-41155154D01*
X123509288Y-41155154D01*
X123509288Y-41226704D01*
G37*
%TD.AperFunction*%
%TA.AperFunction,EtchedComponent*%
G36*
X123652387Y-41512901D02*
G01*
X123652387Y-41727549D01*
X123580837Y-41727549D01*
X123509288Y-41727549D01*
X123509288Y-41512901D01*
X123509288Y-41298253D01*
X123580837Y-41298253D01*
X123652387Y-41298253D01*
X123652387Y-41512901D01*
G37*
%TD.AperFunction*%
%TA.AperFunction,EtchedComponent*%
G36*
X124081682Y-38937126D02*
G01*
X124081682Y-39008675D01*
X123938584Y-39008675D01*
X123795485Y-39008675D01*
X123795485Y-38937126D01*
X123795485Y-38865577D01*
X123938584Y-38865577D01*
X124081682Y-38865577D01*
X124081682Y-38937126D01*
G37*
%TD.AperFunction*%
%TA.AperFunction,EtchedComponent*%
G36*
X124081682Y-42228394D02*
G01*
X124081682Y-42299943D01*
X124010133Y-42299943D01*
X123938584Y-42299943D01*
X123938584Y-42228394D01*
X123938584Y-42156844D01*
X124010133Y-42156844D01*
X124081682Y-42156844D01*
X124081682Y-42228394D01*
G37*
%TD.AperFunction*%
%TA.AperFunction,EtchedComponent*%
G36*
X124224781Y-39080225D02*
G01*
X124224781Y-39151774D01*
X124153232Y-39151774D01*
X124081682Y-39151774D01*
X124081682Y-39080225D01*
X124081682Y-39008675D01*
X124153232Y-39008675D01*
X124224781Y-39008675D01*
X124224781Y-39080225D01*
G37*
%TD.AperFunction*%
%TA.AperFunction,EtchedComponent*%
G36*
X124654077Y-37649239D02*
G01*
X124654077Y-37720788D01*
X124582528Y-37720788D01*
X124510978Y-37720788D01*
X124510978Y-37649239D01*
X124510978Y-37577689D01*
X124582528Y-37577689D01*
X124654077Y-37577689D01*
X124654077Y-37649239D01*
G37*
%TD.AperFunction*%
%TA.AperFunction,EtchedComponent*%
G36*
X124940274Y-37792337D02*
G01*
X124940274Y-37863887D01*
X124797175Y-37863887D01*
X124654077Y-37863887D01*
X124654077Y-37792337D01*
X124654077Y-37720788D01*
X124797175Y-37720788D01*
X124940274Y-37720788D01*
X124940274Y-37792337D01*
G37*
%TD.AperFunction*%
%TA.AperFunction,EtchedComponent*%
G36*
X125226471Y-38364732D02*
G01*
X125226471Y-38579380D01*
X125154922Y-38579380D01*
X125083373Y-38579380D01*
X125083373Y-38364732D01*
X125083373Y-38150084D01*
X125154922Y-38150084D01*
X125226471Y-38150084D01*
X125226471Y-38364732D01*
G37*
%TD.AperFunction*%
%TA.AperFunction,EtchedComponent*%
G36*
X125512668Y-37935436D02*
G01*
X125512668Y-38006985D01*
X125226471Y-38006985D01*
X124940274Y-38006985D01*
X124940274Y-37935436D01*
X124940274Y-37863887D01*
X125226471Y-37863887D01*
X125512668Y-37863887D01*
X125512668Y-37935436D01*
G37*
%TD.AperFunction*%
%TA.AperFunction,EtchedComponent*%
G36*
X125512668Y-40081915D02*
G01*
X125512668Y-40153464D01*
X125298020Y-40153464D01*
X125083373Y-40153464D01*
X125083373Y-40081915D01*
X125083373Y-40010365D01*
X125298020Y-40010365D01*
X125512668Y-40010365D01*
X125512668Y-40081915D01*
G37*
%TD.AperFunction*%
%TA.AperFunction,EtchedComponent*%
G36*
X125798866Y-38078534D02*
G01*
X125798866Y-38150084D01*
X125655767Y-38150084D01*
X125512668Y-38150084D01*
X125512668Y-38078534D01*
X125512668Y-38006985D01*
X125655767Y-38006985D01*
X125798866Y-38006985D01*
X125798866Y-38078534D01*
G37*
%TD.AperFunction*%
%TA.AperFunction,EtchedComponent*%
G36*
X125798866Y-40225013D02*
G01*
X125798866Y-40296563D01*
X125655767Y-40296563D01*
X125512668Y-40296563D01*
X125512668Y-40225013D01*
X125512668Y-40153464D01*
X125655767Y-40153464D01*
X125798866Y-40153464D01*
X125798866Y-40225013D01*
G37*
%TD.AperFunction*%
%TA.AperFunction,EtchedComponent*%
G36*
X127229851Y-38364732D02*
G01*
X127229851Y-38865577D01*
X127158302Y-38865577D01*
X127086753Y-38865577D01*
X127086753Y-38364732D01*
X127086753Y-37863887D01*
X127158302Y-37863887D01*
X127229851Y-37863887D01*
X127229851Y-38364732D01*
G37*
%TD.AperFunction*%
%TA.AperFunction,EtchedComponent*%
G36*
X128088443Y-40797408D02*
G01*
X128088443Y-40868957D01*
X128016894Y-40868957D01*
X127945344Y-40868957D01*
X127945344Y-40797408D01*
X127945344Y-40725858D01*
X128016894Y-40725858D01*
X128088443Y-40725858D01*
X128088443Y-40797408D01*
G37*
%TD.AperFunction*%
%TA.AperFunction,EtchedComponent*%
G36*
X128231542Y-36790647D02*
G01*
X128231542Y-36862196D01*
X128159992Y-36862196D01*
X128088443Y-36862196D01*
X128088443Y-36790647D01*
X128088443Y-36719098D01*
X128159992Y-36719098D01*
X128231542Y-36719098D01*
X128231542Y-36790647D01*
G37*
%TD.AperFunction*%
%TA.AperFunction,EtchedComponent*%
G36*
X128231542Y-41155154D02*
G01*
X128231542Y-41441351D01*
X128159992Y-41441351D01*
X128088443Y-41441351D01*
X128088443Y-41155154D01*
X128088443Y-40868957D01*
X128159992Y-40868957D01*
X128231542Y-40868957D01*
X128231542Y-41155154D01*
G37*
%TD.AperFunction*%
%TA.AperFunction,EtchedComponent*%
G36*
X128374640Y-37076844D02*
G01*
X128374640Y-37291492D01*
X128303091Y-37291492D01*
X128231542Y-37291492D01*
X128231542Y-37076844D01*
X128231542Y-36862196D01*
X128303091Y-36862196D01*
X128374640Y-36862196D01*
X128374640Y-37076844D01*
G37*
%TD.AperFunction*%
%TA.AperFunction,EtchedComponent*%
G36*
X128374640Y-41584450D02*
G01*
X128374640Y-41727549D01*
X128303091Y-41727549D01*
X128231542Y-41727549D01*
X128231542Y-41584450D01*
X128231542Y-41441351D01*
X128303091Y-41441351D01*
X128374640Y-41441351D01*
X128374640Y-41584450D01*
G37*
%TD.AperFunction*%
%TA.AperFunction,EtchedComponent*%
G36*
X128517739Y-37577689D02*
G01*
X128517739Y-37863887D01*
X128446189Y-37863887D01*
X128374640Y-37863887D01*
X128374640Y-37577689D01*
X128374640Y-37291492D01*
X128446189Y-37291492D01*
X128517739Y-37291492D01*
X128517739Y-37577689D01*
G37*
%TD.AperFunction*%
%TA.AperFunction,EtchedComponent*%
G36*
X127945344Y-40511211D02*
G01*
X127945344Y-40725858D01*
X127873795Y-40725858D01*
X127802246Y-40725858D01*
X127802246Y-40582760D01*
X127802246Y-40439661D01*
X126800556Y-40439661D01*
X125798866Y-40439661D01*
X125798866Y-40368112D01*
X125798866Y-40296563D01*
X126872105Y-40296563D01*
X127945344Y-40296563D01*
X127945344Y-40511211D01*
G37*
%TD.AperFunction*%
%TA.AperFunction,EtchedComponent*%
G36*
X123079992Y-39724168D02*
G01*
X123079992Y-40010365D01*
X123008443Y-40010365D01*
X122936894Y-40010365D01*
X122936894Y-40153464D01*
X122936894Y-40296563D01*
X122865344Y-40296563D01*
X122793795Y-40296563D01*
X122793795Y-40225013D01*
X122793795Y-40153464D01*
X122722246Y-40153464D01*
X122650697Y-40153464D01*
X122650697Y-40081915D01*
X122650697Y-40010365D01*
X122793795Y-40010365D01*
X122936894Y-40010365D01*
X122936894Y-39724168D01*
X122936894Y-39437971D01*
X123008443Y-39437971D01*
X123079992Y-39437971D01*
X123079992Y-39724168D01*
G37*
%TD.AperFunction*%
%TA.AperFunction,EtchedComponent*%
G36*
X127659147Y-36361351D02*
G01*
X127659147Y-36432901D01*
X127802246Y-36432901D01*
X127945344Y-36432901D01*
X127945344Y-36504450D01*
X127945344Y-36575999D01*
X128016894Y-36575999D01*
X128088443Y-36575999D01*
X128088443Y-36647549D01*
X128088443Y-36719098D01*
X127873795Y-36719098D01*
X127659147Y-36719098D01*
X127659147Y-36647549D01*
X127659147Y-36575999D01*
X127587598Y-36575999D01*
X127516049Y-36575999D01*
X127516049Y-36504450D01*
X127516049Y-36432901D01*
X127444499Y-36432901D01*
X127372950Y-36432901D01*
X127372950Y-36361351D01*
X127372950Y-36289802D01*
X127516049Y-36289802D01*
X127659147Y-36289802D01*
X127659147Y-36361351D01*
G37*
%TD.AperFunction*%
%TA.AperFunction,EtchedComponent*%
G36*
X127802246Y-37506140D02*
G01*
X127802246Y-37577689D01*
X127587598Y-37577689D01*
X127372950Y-37577689D01*
X127372950Y-37649239D01*
X127372950Y-37720788D01*
X127158302Y-37720788D01*
X126943654Y-37720788D01*
X126943654Y-37792337D01*
X126943654Y-37863887D01*
X126872105Y-37863887D01*
X126800556Y-37863887D01*
X126800556Y-37792337D01*
X126800556Y-37720788D01*
X126872105Y-37720788D01*
X126943654Y-37720788D01*
X126943654Y-37649239D01*
X126943654Y-37577689D01*
X127158302Y-37577689D01*
X127372950Y-37577689D01*
X127372950Y-37506140D01*
X127372950Y-37434591D01*
X127587598Y-37434591D01*
X127802246Y-37434591D01*
X127802246Y-37506140D01*
G37*
%TD.AperFunction*%
%TA.AperFunction,EtchedComponent*%
G36*
X122936894Y-39366422D02*
G01*
X122936894Y-39437971D01*
X122650697Y-39437971D01*
X122364499Y-39437971D01*
X122364499Y-39509520D01*
X122364499Y-39581070D01*
X122292950Y-39581070D01*
X122221401Y-39581070D01*
X122221401Y-39652619D01*
X122221401Y-39724168D01*
X122149851Y-39724168D01*
X122078302Y-39724168D01*
X122078302Y-39867267D01*
X122078302Y-40010365D01*
X122292950Y-40010365D01*
X122507598Y-40010365D01*
X122507598Y-40081915D01*
X122507598Y-40153464D01*
X122221401Y-40153464D01*
X121935204Y-40153464D01*
X121935204Y-39938816D01*
X121935204Y-39724168D01*
X122006753Y-39724168D01*
X122078302Y-39724168D01*
X122078302Y-39581070D01*
X122078302Y-39437971D01*
X122149851Y-39437971D01*
X122221401Y-39437971D01*
X122221401Y-39366422D01*
X122221401Y-39294873D01*
X122579147Y-39294873D01*
X122936894Y-39294873D01*
X122936894Y-39366422D01*
G37*
%TD.AperFunction*%
%TA.AperFunction,EtchedComponent*%
G36*
X128660837Y-38364732D02*
G01*
X128660837Y-38865577D01*
X128589288Y-38865577D01*
X128517739Y-38865577D01*
X128517739Y-39080225D01*
X128517739Y-39294873D01*
X128446189Y-39294873D01*
X128374640Y-39294873D01*
X128374640Y-39366422D01*
X128374640Y-39437971D01*
X128159992Y-39437971D01*
X127945344Y-39437971D01*
X127945344Y-39509520D01*
X127945344Y-39581070D01*
X126371260Y-39581070D01*
X124797175Y-39581070D01*
X124797175Y-39509520D01*
X124797175Y-39437971D01*
X124582528Y-39437971D01*
X124367880Y-39437971D01*
X124367880Y-39366422D01*
X124367880Y-39294873D01*
X124296330Y-39294873D01*
X124224781Y-39294873D01*
X124224781Y-39223323D01*
X124224781Y-39151774D01*
X124367880Y-39151774D01*
X124510978Y-39151774D01*
X124510978Y-39223323D01*
X124510978Y-39294873D01*
X124654077Y-39294873D01*
X124797175Y-39294873D01*
X124797175Y-39366422D01*
X124797175Y-39437971D01*
X126371260Y-39437971D01*
X127945344Y-39437971D01*
X127945344Y-39366422D01*
X127945344Y-39294873D01*
X128088443Y-39294873D01*
X128231542Y-39294873D01*
X128231542Y-39223323D01*
X128231542Y-39151774D01*
X128303091Y-39151774D01*
X128374640Y-39151774D01*
X128374640Y-39008675D01*
X128374640Y-38865577D01*
X128446189Y-38865577D01*
X128517739Y-38865577D01*
X128517739Y-38364732D01*
X128517739Y-37863887D01*
X128589288Y-37863887D01*
X128660837Y-37863887D01*
X128660837Y-38364732D01*
G37*
%TD.AperFunction*%
%TA.AperFunction,EtchedComponent*%
G36*
X129805626Y-38078534D02*
G01*
X129805626Y-42586140D01*
X127158302Y-42586140D01*
X124510978Y-42586140D01*
X124510978Y-42657689D01*
X124510978Y-42729239D01*
X124367880Y-42729239D01*
X124224781Y-42729239D01*
X124224781Y-42657689D01*
X124224781Y-42586140D01*
X122579147Y-42586140D01*
X120933513Y-42586140D01*
X120933513Y-42443042D01*
X121076612Y-42443042D01*
X122364499Y-42443042D01*
X123652387Y-42443042D01*
X123652387Y-42299943D01*
X123652387Y-42156844D01*
X123723936Y-42156844D01*
X123795485Y-42156844D01*
X123795485Y-42299943D01*
X123795485Y-42443042D01*
X123938584Y-42443042D01*
X124081682Y-42443042D01*
X124081682Y-42371492D01*
X124081682Y-42299943D01*
X124153232Y-42299943D01*
X124224781Y-42299943D01*
X124224781Y-42371492D01*
X124224781Y-42443042D01*
X124510978Y-42443042D01*
X124797175Y-42443042D01*
X124797175Y-42371492D01*
X124797175Y-42299943D01*
X124940274Y-42299943D01*
X125083373Y-42299943D01*
X125083373Y-42371492D01*
X125083373Y-42443042D01*
X126800556Y-42443042D01*
X128517739Y-42443042D01*
X128517739Y-42228394D01*
X128517739Y-42013746D01*
X128446189Y-42013746D01*
X128374640Y-42013746D01*
X128374640Y-41870647D01*
X128374640Y-41727549D01*
X128446189Y-41727549D01*
X128517739Y-41727549D01*
X128517739Y-41799098D01*
X128517739Y-41870647D01*
X128589288Y-41870647D01*
X128660837Y-41870647D01*
X128660837Y-42156844D01*
X128660837Y-42443042D01*
X129161682Y-42443042D01*
X129662528Y-42443042D01*
X129662528Y-38078534D01*
X129662528Y-33714027D01*
X125369570Y-33714027D01*
X121076612Y-33714027D01*
X121076612Y-38078534D01*
X121076612Y-42443042D01*
X120933513Y-42443042D01*
X120933513Y-38078534D01*
X120933513Y-33570929D01*
X125369570Y-33570929D01*
X129805626Y-33570929D01*
X129805626Y-38078534D01*
G37*
%TD.AperFunction*%
%TA.AperFunction,EtchedComponent*%
G36*
X125083373Y-39938816D02*
G01*
X125083373Y-40010365D01*
X124940274Y-40010365D01*
X124797175Y-40010365D01*
X124797175Y-40081915D01*
X124797175Y-40153464D01*
X124725626Y-40153464D01*
X124654077Y-40153464D01*
X124654077Y-40511211D01*
X124654077Y-40868957D01*
X124582528Y-40868957D01*
X124510978Y-40868957D01*
X124510978Y-41012056D01*
X124510978Y-41155154D01*
X124439429Y-41155154D01*
X124367880Y-41155154D01*
X124367880Y-41298253D01*
X124367880Y-41441351D01*
X124296330Y-41441351D01*
X124224781Y-41441351D01*
X124224781Y-41584450D01*
X124224781Y-41727549D01*
X124153232Y-41727549D01*
X124081682Y-41727549D01*
X124081682Y-41799098D01*
X124081682Y-41870647D01*
X124010133Y-41870647D01*
X123938584Y-41870647D01*
X123938584Y-42013746D01*
X123938584Y-42156844D01*
X123867035Y-42156844D01*
X123795485Y-42156844D01*
X123795485Y-42013746D01*
X123795485Y-41870647D01*
X123723936Y-41870647D01*
X123652387Y-41870647D01*
X123652387Y-41799098D01*
X123652387Y-41727549D01*
X123723936Y-41727549D01*
X123795485Y-41727549D01*
X123795485Y-41799098D01*
X123795485Y-41870647D01*
X123867035Y-41870647D01*
X123938584Y-41870647D01*
X123938584Y-41799098D01*
X123938584Y-41727549D01*
X124010133Y-41727549D01*
X124081682Y-41727549D01*
X124081682Y-41584450D01*
X124081682Y-41441351D01*
X124153232Y-41441351D01*
X124224781Y-41441351D01*
X124224781Y-41298253D01*
X124224781Y-41155154D01*
X124296330Y-41155154D01*
X124367880Y-41155154D01*
X124367880Y-41012056D01*
X124367880Y-40868957D01*
X124439429Y-40868957D01*
X124510978Y-40868957D01*
X124510978Y-40511211D01*
X124510978Y-40153464D01*
X124582528Y-40153464D01*
X124654077Y-40153464D01*
X124654077Y-40010365D01*
X124654077Y-39867267D01*
X124868725Y-39867267D01*
X125083373Y-39867267D01*
X125083373Y-39938816D01*
G37*
%TD.AperFunction*%
%TA.AperFunction,EtchedComponent*%
G36*
X127086753Y-41083605D02*
G01*
X127086753Y-41155154D01*
X126943654Y-41155154D01*
X126800556Y-41155154D01*
X126800556Y-41226704D01*
X126800556Y-41298253D01*
X126657457Y-41298253D01*
X126514358Y-41298253D01*
X126514358Y-41369802D01*
X126514358Y-41441351D01*
X126371260Y-41441351D01*
X126228161Y-41441351D01*
X126228161Y-41512901D01*
X126228161Y-41584450D01*
X126085063Y-41584450D01*
X125941964Y-41584450D01*
X125941964Y-41655999D01*
X125941964Y-41727549D01*
X125870415Y-41727549D01*
X125798866Y-41727549D01*
X125798866Y-41799098D01*
X125798866Y-41870647D01*
X125655767Y-41870647D01*
X125512668Y-41870647D01*
X125512668Y-41942196D01*
X125512668Y-42013746D01*
X125441119Y-42013746D01*
X125369570Y-42013746D01*
X125369570Y-42085295D01*
X125369570Y-42156844D01*
X125298020Y-42156844D01*
X125226471Y-42156844D01*
X125226471Y-42228394D01*
X125226471Y-42299943D01*
X125154922Y-42299943D01*
X125083373Y-42299943D01*
X125083373Y-42228394D01*
X125083373Y-42156844D01*
X125154922Y-42156844D01*
X125226471Y-42156844D01*
X125226471Y-42085295D01*
X125226471Y-42013746D01*
X125298020Y-42013746D01*
X125369570Y-42013746D01*
X125369570Y-41942196D01*
X125369570Y-41870647D01*
X125441119Y-41870647D01*
X125512668Y-41870647D01*
X125512668Y-41799098D01*
X125512668Y-41727549D01*
X125655767Y-41727549D01*
X125798866Y-41727549D01*
X125798866Y-41655999D01*
X125798866Y-41584450D01*
X125870415Y-41584450D01*
X125941964Y-41584450D01*
X125941964Y-41512901D01*
X125941964Y-41441351D01*
X126085063Y-41441351D01*
X126228161Y-41441351D01*
X126228161Y-41369802D01*
X126228161Y-41298253D01*
X126371260Y-41298253D01*
X126514358Y-41298253D01*
X126514358Y-41226704D01*
X126514358Y-41155154D01*
X126657457Y-41155154D01*
X126800556Y-41155154D01*
X126800556Y-41083605D01*
X126800556Y-41012056D01*
X126943654Y-41012056D01*
X127086753Y-41012056D01*
X127086753Y-41083605D01*
G37*
%TD.AperFunction*%
%TA.AperFunction,EtchedComponent*%
G36*
X127372950Y-36218253D02*
G01*
X127372950Y-36289802D01*
X126371260Y-36289802D01*
X125369570Y-36289802D01*
X125369570Y-36361351D01*
X125369570Y-36432901D01*
X125083373Y-36432901D01*
X124797175Y-36432901D01*
X124797175Y-36504450D01*
X124797175Y-36575999D01*
X124582528Y-36575999D01*
X124367880Y-36575999D01*
X124367880Y-36647549D01*
X124367880Y-36719098D01*
X124224781Y-36719098D01*
X124081682Y-36719098D01*
X124081682Y-36790647D01*
X124081682Y-36862196D01*
X124010133Y-36862196D01*
X123938584Y-36862196D01*
X123938584Y-36933746D01*
X123938584Y-37005295D01*
X123867035Y-37005295D01*
X123795485Y-37005295D01*
X123795485Y-37148394D01*
X123795485Y-37291492D01*
X123723936Y-37291492D01*
X123652387Y-37291492D01*
X123652387Y-37506140D01*
X123652387Y-37720788D01*
X123580837Y-37720788D01*
X123509288Y-37720788D01*
X123509288Y-38150084D01*
X123509288Y-38579380D01*
X123580837Y-38579380D01*
X123652387Y-38579380D01*
X123652387Y-38650929D01*
X123652387Y-38722478D01*
X123723936Y-38722478D01*
X123795485Y-38722478D01*
X123795485Y-38794027D01*
X123795485Y-38865577D01*
X123652387Y-38865577D01*
X123509288Y-38865577D01*
X123509288Y-38794027D01*
X123509288Y-38722478D01*
X123437739Y-38722478D01*
X123366189Y-38722478D01*
X123366189Y-38221633D01*
X123366189Y-37720788D01*
X123437739Y-37720788D01*
X123509288Y-37720788D01*
X123509288Y-37506140D01*
X123509288Y-37291492D01*
X123580837Y-37291492D01*
X123652387Y-37291492D01*
X123652387Y-37148394D01*
X123652387Y-37005295D01*
X123723936Y-37005295D01*
X123795485Y-37005295D01*
X123795485Y-36933746D01*
X123795485Y-36862196D01*
X123867035Y-36862196D01*
X123938584Y-36862196D01*
X123938584Y-36790647D01*
X123938584Y-36719098D01*
X124010133Y-36719098D01*
X124081682Y-36719098D01*
X124081682Y-36647549D01*
X124081682Y-36575999D01*
X124224781Y-36575999D01*
X124367880Y-36575999D01*
X124367880Y-36504450D01*
X124367880Y-36432901D01*
X124582528Y-36432901D01*
X124797175Y-36432901D01*
X124797175Y-36361351D01*
X124797175Y-36289802D01*
X125083373Y-36289802D01*
X125369570Y-36289802D01*
X125369570Y-36218253D01*
X125369570Y-36146704D01*
X126371260Y-36146704D01*
X127372950Y-36146704D01*
X127372950Y-36218253D01*
G37*
%TD.AperFunction*%
%TD*%
D11*
%TO.P,MX15,1,COL*%
%TO.N,/COL2*%
X81915000Y-93345000D03*
%TO.P,MX15,2,ROW*%
%TO.N,Net-(D17-A)*%
X75565000Y-95885000D03*
%TD*%
D12*
%TO.P,D7,1,K*%
%TO.N,/ROW0*%
X88106250Y-50068750D03*
%TO.P,D7,2,A*%
%TO.N,Net-(D7-A)*%
X88106250Y-46768750D03*
%TD*%
D11*
%TO.P,MX9,1,COL*%
%TO.N,/COL0*%
X43815000Y-74295000D03*
%TO.P,MX9,2,ROW*%
%TO.N,Net-(D11-A)*%
X37465000Y-76835000D03*
%TD*%
%TO.P,MX5,1,COL*%
%TO.N,/COL2*%
X81915000Y-36195000D03*
%TO.P,MX5,2,ROW*%
%TO.N,Net-(D7-A)*%
X75565000Y-38735000D03*
%TD*%
D12*
%TO.P,D12,1,K*%
%TO.N,/ROW2*%
X69056250Y-88168750D03*
%TO.P,D12,2,A*%
%TO.N,Net-(D12-A)*%
X69056250Y-84868750D03*
%TD*%
%TO.P,D18,1,K*%
%TO.N,/ROW3*%
X107134730Y-106992442D03*
%TO.P,D18,2,A*%
%TO.N,Net-(D18-A)*%
X107134730Y-103692442D03*
%TD*%
%TO.P,D3,1,K*%
%TO.N,/ROW1*%
X49212500Y-69181250D03*
%TO.P,D3,2,A*%
%TO.N,Net-(D3-A)*%
X49212500Y-65881250D03*
%TD*%
%TO.P,D8,1,K*%
%TO.N,/ROW1*%
X88106250Y-69181250D03*
%TO.P,D8,2,A*%
%TO.N,Net-(D8-A)*%
X88106250Y-65881250D03*
%TD*%
%TO.P,D10,1,K*%
%TO.N,/ROW1*%
X106631250Y-69181250D03*
%TO.P,D10,2,A*%
%TO.N,Net-(D10-A)*%
X106631250Y-65881250D03*
%TD*%
D11*
%TO.P,MX6,1,COL*%
%TO.N,/COL2*%
X81915000Y-55245000D03*
%TO.P,MX6,2,ROW*%
%TO.N,Net-(D8-A)*%
X75565000Y-57785000D03*
%TD*%
%TO.P,MX3,1,COL*%
%TO.N,/COL0*%
X43815000Y-55245000D03*
%TO.P,MX3,2,ROW*%
%TO.N,Net-(D3-A)*%
X37465000Y-57785000D03*
%TD*%
%TO.P,MX1,1,COL*%
%TO.N,/COL0*%
X43815000Y-36195000D03*
%TO.P,MX1,2,ROW*%
%TO.N,Net-(D1-A)*%
X37465000Y-38735000D03*
%TD*%
D12*
%TO.P,D11,1,K*%
%TO.N,/ROW2*%
X50006250Y-88168750D03*
%TO.P,D11,2,A*%
%TO.N,Net-(D11-A)*%
X50006250Y-84868750D03*
%TD*%
D11*
%TO.P,MX4,1,COL*%
%TO.N,/COL1*%
X62706250Y-55245000D03*
%TO.P,MX4,2,ROW*%
%TO.N,Net-(D4-A)*%
X56356250Y-57785000D03*
%TD*%
%TO.P,MX2,1,COL*%
%TO.N,/COL1*%
X62865000Y-36195000D03*
%TO.P,MX2,2,ROW*%
%TO.N,Net-(D2-A)*%
X56515000Y-38735000D03*
%TD*%
%TO.P,MX14,1,COL*%
%TO.N,/COL1*%
X62865000Y-93345000D03*
%TO.P,MX14,2,ROW*%
%TO.N,Net-(D16-A)*%
X56515000Y-95885000D03*
%TD*%
%TO.P,MX11,1,COL*%
%TO.N,/COL2*%
X81915000Y-74295000D03*
%TO.P,MX11,2,ROW*%
%TO.N,Net-(D13-A)*%
X75565000Y-76835000D03*
%TD*%
D12*
%TO.P,D1,1,K*%
%TO.N,/ROW0*%
X49212500Y-50068750D03*
%TO.P,D1,2,A*%
%TO.N,Net-(D1-A)*%
X49212500Y-46768750D03*
%TD*%
D11*
%TO.P,MX12,1,COL*%
%TO.N,/COL3*%
X100965000Y-74295000D03*
%TO.P,MX12,2,ROW*%
%TO.N,Net-(D14-A)*%
X94615000Y-76835000D03*
%TD*%
%TO.P,MX8,1,COL*%
%TO.N,/COL3*%
X100965000Y-55245000D03*
%TO.P,MX8,2,ROW*%
%TO.N,Net-(D10-A)*%
X94615000Y-57785000D03*
%TD*%
D12*
%TO.P,D2,1,K*%
%TO.N,/ROW0*%
X68262500Y-50068750D03*
%TO.P,D2,2,A*%
%TO.N,Net-(D2-A)*%
X68262500Y-46768750D03*
%TD*%
%TO.P,D15,1,K*%
%TO.N,/ROW3*%
X49212500Y-100075000D03*
%TO.P,D15,2,A*%
%TO.N,Net-(D15-A)*%
X49212500Y-96775000D03*
%TD*%
%TO.P,D13,1,K*%
%TO.N,/ROW2*%
X88106250Y-88168750D03*
%TO.P,D13,2,A*%
%TO.N,Net-(D13-A)*%
X88106250Y-84868750D03*
%TD*%
%TO.P,D4,1,K*%
%TO.N,/ROW1*%
X68262500Y-69181250D03*
%TO.P,D4,2,A*%
%TO.N,Net-(D4-A)*%
X68262500Y-65881250D03*
%TD*%
%TO.P,D17,1,K*%
%TO.N,/ROW3*%
X88106250Y-102456250D03*
%TO.P,D17,2,A*%
%TO.N,Net-(D17-A)*%
X88106250Y-99156250D03*
%TD*%
%TO.P,D14,1,K*%
%TO.N,/ROW2*%
X106362500Y-88168750D03*
%TO.P,D14,2,A*%
%TO.N,Net-(D14-A)*%
X106362500Y-84868750D03*
%TD*%
D11*
%TO.P,MX13,1,COL*%
%TO.N,/COL0*%
X43815000Y-93345000D03*
%TO.P,MX13,2,ROW*%
%TO.N,Net-(D15-A)*%
X37465000Y-95885000D03*
%TD*%
%TO.P,MX16,1,COL*%
%TO.N,/COL3*%
X100965000Y-93345000D03*
%TO.P,MX16,2,ROW*%
%TO.N,Net-(D18-A)*%
X94615000Y-95885000D03*
%TD*%
%TO.P,MX10,1,COL*%
%TO.N,/COL1*%
X62865000Y-74295000D03*
%TO.P,MX10,2,ROW*%
%TO.N,Net-(D12-A)*%
X56515000Y-76835000D03*
%TD*%
D12*
%TO.P,D16,1,K*%
%TO.N,/ROW3*%
X69056250Y-100868750D03*
%TO.P,D16,2,A*%
%TO.N,Net-(D16-A)*%
X69056250Y-97568750D03*
%TD*%
D13*
%TO.P,U2,1,GPIO26/ADC0/A0*%
%TO.N,unconnected-(U2-GPIO26{slash}ADC0{slash}A0-Pad1)*%
X113823750Y-104933750D03*
%TO.P,U2,2,GPIO27/ADC1/A1*%
%TO.N,unconnected-(U2-GPIO27{slash}ADC1{slash}A1-Pad2)*%
X113823750Y-102393750D03*
%TO.P,U2,3,GPIO28/ADC2/A2*%
%TO.N,/ROW2*%
X113823750Y-99853750D03*
%TO.P,U2,4,GPIO29/ADC3/A3*%
%TO.N,/ROW3*%
X113823750Y-97313750D03*
%TO.P,U2,5,GPIO6/SDA*%
%TO.N,Net-(D5-DIN)*%
X113823750Y-94773750D03*
%TO.P,U2,6,GPIO7/SCL*%
%TO.N,/COL2*%
X113823750Y-92233750D03*
%TO.P,U2,7,GPIO0/TX*%
%TO.N,/COL3*%
X113823750Y-89693750D03*
%TO.P,U2,8,GPIO1/RX*%
%TO.N,/ROW0*%
X129063750Y-89693750D03*
%TO.P,U2,9,GPIO2/SCK*%
%TO.N,/ROW1*%
X129063750Y-92233750D03*
%TO.P,U2,10,GPIO4/MISO*%
%TO.N,/COL1*%
X129063750Y-94773750D03*
%TO.P,U2,11,GPIO3/MOSI*%
%TO.N,/COL0*%
X129063750Y-97313750D03*
%TO.P,U2,12,3V3*%
%TO.N,unconnected-(U2-3V3-Pad12)*%
X129063750Y-99853750D03*
%TO.P,U2,13,GND*%
%TO.N,GND*%
X129063750Y-102393750D03*
%TO.P,U2,14,VBUS*%
%TO.N,+5V*%
X129063750Y-104933750D03*
%TD*%
D14*
%TO.N,/ROW0*%
X106362500Y-50068750D03*
%TO.N,/ROW1*%
X106631250Y-69181250D03*
%TO.N,/ROW2*%
X106362500Y-88168750D03*
%TO.N,/ROW3*%
X107156250Y-107218750D03*
%TD*%
D15*
%TO.N,Net-(D1-A)*%
X42059816Y-38735000D02*
X49212500Y-45887684D01*
X37465000Y-38735000D02*
X42059816Y-38735000D01*
X49212500Y-45887684D02*
X49212500Y-46768750D01*
%TO.N,/ROW0*%
X49212500Y-50068750D02*
X106362500Y-50068750D01*
%TO.N,Net-(D2-A)*%
X56515000Y-38735000D02*
X61109816Y-38735000D01*
X61109816Y-38735000D02*
X68262500Y-45887684D01*
X68262500Y-45887684D02*
X68262500Y-46768750D01*
%TO.N,Net-(D3-A)*%
X42059816Y-57785000D02*
X49212500Y-64937684D01*
X49212500Y-64937684D02*
X49212500Y-65881250D01*
X37465000Y-57785000D02*
X42059816Y-57785000D01*
%TO.N,/ROW1*%
X49212500Y-69181250D02*
X106631250Y-69181250D01*
%TO.N,Net-(D4-A)*%
X61007780Y-57785000D02*
X68262500Y-65039720D01*
X68262500Y-65039720D02*
X68262500Y-65881250D01*
X56356250Y-57785000D02*
X61007780Y-57785000D01*
%TO.N,/COL0*%
X129504060Y-93710750D02*
X128623440Y-93710750D01*
X129063750Y-97313750D02*
X130126750Y-96250750D01*
X130126750Y-94333440D02*
X129504060Y-93710750D01*
X125983441Y-91070751D02*
X46089249Y-91070751D01*
X128623440Y-93710750D02*
X125983441Y-91070751D01*
X130126750Y-96250750D02*
X130126750Y-94333440D01*
X46089249Y-91070751D02*
X43815000Y-93345000D01*
%TO.N,/COL1*%
X101545314Y-94746000D02*
X95457314Y-94746000D01*
X129063750Y-94773750D02*
X128000750Y-93710750D01*
X128000750Y-93710750D02*
X102580564Y-93710750D01*
X95457314Y-94746000D02*
X95167564Y-94456250D01*
X84137500Y-94456250D02*
X83847750Y-94746000D01*
X76407314Y-94746000D02*
X75006314Y-93345000D01*
X95167564Y-94456250D02*
X84137500Y-94456250D01*
X102580564Y-93710750D02*
X101545314Y-94746000D01*
X75006314Y-93345000D02*
X62865000Y-93345000D01*
X83847750Y-94746000D02*
X76407314Y-94746000D01*
%TO.N,Net-(D7-A)*%
X80159816Y-38735000D02*
X88106250Y-46681434D01*
X88106250Y-46681434D02*
X88106250Y-46768750D01*
X75565000Y-38735000D02*
X80159816Y-38735000D01*
%TO.N,Net-(D8-A)*%
X88106250Y-65731434D02*
X88106250Y-65881250D01*
X80159816Y-57785000D02*
X88106250Y-65731434D01*
X75565000Y-57785000D02*
X80159816Y-57785000D01*
%TO.N,Net-(D10-A)*%
X94615000Y-57785000D02*
X99209816Y-57785000D01*
X99209816Y-57785000D02*
X106631250Y-65206434D01*
X106631250Y-65206434D02*
X106631250Y-65881250D01*
%TO.N,/COL2*%
X113061751Y-91471751D02*
X83788249Y-91471751D01*
X113823750Y-92233750D02*
X113061751Y-91471751D01*
X83788249Y-91471751D02*
X81915000Y-93345000D01*
%TO.N,Net-(D11-A)*%
X43443934Y-84868750D02*
X50006250Y-84868750D01*
X37465000Y-76835000D02*
X37465000Y-78889816D01*
X37465000Y-78889816D02*
X43443934Y-84868750D01*
%TO.N,/ROW2*%
X50006250Y-88168750D02*
X106362500Y-88168750D01*
%TO.N,Net-(D12-A)*%
X56515000Y-78889816D02*
X62493934Y-84868750D01*
X56515000Y-76835000D02*
X56515000Y-78889816D01*
X62493934Y-84868750D02*
X69056250Y-84868750D01*
%TO.N,Net-(D13-A)*%
X81543934Y-84868750D02*
X88106250Y-84868750D01*
X75565000Y-78889816D02*
X81543934Y-84868750D01*
X75565000Y-76835000D02*
X75565000Y-78889816D01*
%TO.N,Net-(D14-A)*%
X94615000Y-78889816D02*
X100593934Y-84868750D01*
X100593934Y-84868750D02*
X106362500Y-84868750D01*
X94615000Y-76835000D02*
X94615000Y-78889816D01*
%TO.N,/ROW3*%
X49613500Y-100476000D02*
X53457250Y-104319750D01*
X69056250Y-100868750D02*
X72507250Y-104319750D01*
X72507250Y-104319750D02*
X87478600Y-104319750D01*
X69457250Y-104084850D02*
X69457250Y-102794750D01*
X88106250Y-102456250D02*
X92868750Y-107218750D01*
X69222350Y-104319750D02*
X69457250Y-104084850D01*
X53457250Y-104319750D02*
X69222350Y-104319750D01*
X49613500Y-100476000D02*
X49212500Y-100075000D01*
X87478600Y-104319750D02*
X88106250Y-103692100D01*
X69056250Y-102393750D02*
X69056250Y-100868750D01*
X69457250Y-102794750D02*
X69056250Y-102393750D01*
X92868750Y-107218750D02*
X107156250Y-107218750D01*
X88106250Y-103692100D02*
X88106250Y-102456250D01*
%TO.N,Net-(D15-A)*%
X43443934Y-103918750D02*
X48418750Y-103918750D01*
X48418750Y-103918750D02*
X49212500Y-103918750D01*
X48418750Y-103918750D02*
X47625000Y-103125000D01*
X47625000Y-98362500D02*
X49212500Y-96775000D01*
X37465000Y-97939816D02*
X43443934Y-103918750D01*
X37465000Y-95885000D02*
X37465000Y-97939816D01*
X47625000Y-103125000D02*
X47625000Y-98362500D01*
%TO.N,Net-(D16-A)*%
X68155250Y-103017750D02*
X68155250Y-98469750D01*
X62493934Y-103918750D02*
X69056250Y-103918750D01*
X68155250Y-98469750D02*
X69056250Y-97568750D01*
X56515000Y-95885000D02*
X56515000Y-97939816D01*
X56515000Y-97939816D02*
X62493934Y-103918750D01*
X69056250Y-103918750D02*
X68155250Y-103017750D01*
%TO.N,Net-(D17-A)*%
X87205250Y-103811500D02*
X87205250Y-100057250D01*
X75565000Y-95885000D02*
X75565000Y-97939816D01*
X81543934Y-103918750D02*
X87312500Y-103918750D01*
X75565000Y-97939816D02*
X81543934Y-103918750D01*
X87205250Y-100057250D02*
X88106250Y-99156250D01*
X87312500Y-103918750D02*
X87205250Y-103811500D01*
%TO.N,Net-(D18-A)*%
X94615000Y-95885000D02*
X94615000Y-97939816D01*
X100593934Y-103918750D02*
X107156250Y-103918750D01*
X94615000Y-97939816D02*
X100593934Y-103918750D01*
%TD*%
M02*
