%TF.GenerationSoftware,KiCad,Pcbnew,9.0.2*%
%TF.CreationDate,2025-06-27T23:38:42-07:00*%
%TF.ProjectId,bigMacro,6269674d-6163-4726-9f2e-6b696361645f,rev?*%
%TF.SameCoordinates,Original*%
%TF.FileFunction,Legend,Top*%
%TF.FilePolarity,Positive*%
%FSLAX46Y46*%
G04 Gerber Fmt 4.6, Leading zero omitted, Abs format (unit mm)*
G04 Created by KiCad (PCBNEW 9.0.2) date 2025-06-27 23:38:42*
%MOMM*%
%LPD*%
G01*
G04 APERTURE LIST*
%ADD10C,0.100000*%
%ADD11C,0.087500*%
%ADD12C,0.150000*%
%ADD13C,0.120000*%
G04 APERTURE END LIST*
D10*
G36*
X111688678Y-64371455D02*
G01*
X111635608Y-64363166D01*
X111597819Y-64340300D01*
X111571335Y-64302056D01*
X111556177Y-64242983D01*
X111517952Y-63943786D01*
X111503391Y-63786099D01*
X111498779Y-63644466D01*
X111503542Y-63514651D01*
X111508305Y-63384836D01*
X111497285Y-63227151D01*
X111471678Y-63142013D01*
X111438850Y-63101813D01*
X111399006Y-63089668D01*
X111328404Y-63099544D01*
X111257428Y-63130255D01*
X111183979Y-63185497D01*
X111106648Y-63271385D01*
X111031704Y-63386426D01*
X110965825Y-63524688D01*
X110909910Y-63689651D01*
X110897576Y-63823618D01*
X110889394Y-63956120D01*
X110897576Y-64079218D01*
X110905758Y-64202194D01*
X110896021Y-64258695D01*
X110868144Y-64301846D01*
X110825908Y-64330378D01*
X110771913Y-64340192D01*
X110716833Y-64330331D01*
X110674826Y-64301968D01*
X110647511Y-64258894D01*
X110637946Y-64202439D01*
X110629031Y-64079585D01*
X110620238Y-63956853D01*
X110640022Y-63567285D01*
X110659927Y-63177840D01*
X110655043Y-63048147D01*
X110650280Y-62918576D01*
X110660230Y-62864631D01*
X110689237Y-62822344D01*
X110732433Y-62794371D01*
X110785590Y-62784853D01*
X110839414Y-62795056D01*
X110879019Y-62824339D01*
X110907716Y-62876476D01*
X110923465Y-62961685D01*
X110927618Y-63120931D01*
X111030757Y-63000004D01*
X111128123Y-62914559D01*
X111220827Y-62858284D01*
X111310450Y-62826433D01*
X111399006Y-62816116D01*
X111502778Y-62828864D01*
X111585269Y-62864702D01*
X111651507Y-62923269D01*
X111703699Y-63008458D01*
X111734140Y-63096407D01*
X111756685Y-63219648D01*
X111767935Y-63387767D01*
X111767935Y-63525520D01*
X111766592Y-63652404D01*
X111773064Y-63773506D01*
X111795901Y-63945129D01*
X111818854Y-64116562D01*
X111825332Y-64236388D01*
X111815324Y-64291492D01*
X111786375Y-64333963D01*
X111742993Y-64361881D01*
X111688678Y-64371455D01*
G37*
G36*
X112823624Y-62873250D02*
G01*
X112915408Y-62902754D01*
X112996408Y-62951130D01*
X113068458Y-63019879D01*
X113132276Y-63112261D01*
X113192461Y-63250869D01*
X113229150Y-63411060D01*
X113240231Y-63597205D01*
X113228099Y-63747277D01*
X113197149Y-63881885D01*
X113148343Y-64003309D01*
X113081717Y-64113412D01*
X113005170Y-64202695D01*
X112921835Y-64269770D01*
X112830828Y-64317132D01*
X112730515Y-64345919D01*
X112618633Y-64355823D01*
X112507388Y-64345174D01*
X112405867Y-64313913D01*
X112311857Y-64261799D01*
X112223814Y-64186929D01*
X112144411Y-64087855D01*
X112085410Y-63972711D01*
X112046681Y-63838576D01*
X112029763Y-63681591D01*
X112029780Y-63681224D01*
X112298919Y-63681224D01*
X112312116Y-63809287D01*
X112348716Y-63910394D01*
X112406874Y-63990558D01*
X112471496Y-64042137D01*
X112541317Y-64072155D01*
X112618633Y-64082271D01*
X112709015Y-64070685D01*
X112789597Y-64036518D01*
X112863120Y-63978224D01*
X112927020Y-63895068D01*
X112968321Y-63793178D01*
X112986096Y-63667547D01*
X112980593Y-63475176D01*
X112953317Y-63339648D01*
X112910544Y-63246858D01*
X112855308Y-63185780D01*
X112786813Y-63149539D01*
X112700576Y-63136563D01*
X112605984Y-63147911D01*
X112524189Y-63182351D01*
X112451923Y-63240946D01*
X112387701Y-63328171D01*
X112338981Y-63434398D01*
X112309186Y-63551325D01*
X112298919Y-63681224D01*
X112029780Y-63681224D01*
X112036737Y-63529335D01*
X112065268Y-63389605D01*
X112114696Y-63260245D01*
X112185468Y-63139494D01*
X112269430Y-63038553D01*
X112363049Y-62962232D01*
X112467492Y-62907898D01*
X112584914Y-62874572D01*
X112718284Y-62863011D01*
X112823624Y-62873250D01*
G37*
G36*
X114491487Y-63113726D02*
G01*
X114423832Y-63111040D01*
X114356299Y-63108231D01*
X114170430Y-63128747D01*
X114196442Y-63935237D01*
X114197785Y-63995199D01*
X114199128Y-64064808D01*
X114192482Y-64193761D01*
X114171508Y-64276468D01*
X114141309Y-64326694D01*
X114103493Y-64354296D01*
X114055636Y-64363639D01*
X114004524Y-64354719D01*
X113960747Y-64328102D01*
X113930504Y-64288067D01*
X113920447Y-64239197D01*
X113924477Y-64083248D01*
X113928629Y-63927421D01*
X113901396Y-63128747D01*
X113598047Y-63105666D01*
X113542792Y-63090146D01*
X113506487Y-63063405D01*
X113484462Y-63025031D01*
X113476414Y-62970844D01*
X113485879Y-62915449D01*
X113513294Y-62871559D01*
X113554941Y-62842037D01*
X113607572Y-62831992D01*
X113894558Y-62855195D01*
X113888329Y-62669937D01*
X113882223Y-62502264D01*
X113892240Y-62449884D01*
X113921791Y-62407987D01*
X113965586Y-62380084D01*
X114018877Y-62370617D01*
X114070230Y-62381317D01*
X114110429Y-62413165D01*
X114141955Y-62472062D01*
X114162248Y-62570652D01*
X114166400Y-62691797D01*
X114163713Y-62770809D01*
X114162248Y-62855195D01*
X114356299Y-62833335D01*
X114486210Y-62837774D01*
X114542045Y-62847013D01*
X114587953Y-62873059D01*
X114615359Y-62914108D01*
X114625454Y-62975607D01*
X114615801Y-63031092D01*
X114587841Y-63074769D01*
X114545537Y-63103771D01*
X114491487Y-63113726D01*
G37*
G36*
X117762998Y-64394902D02*
G01*
X117717978Y-64386720D01*
X117678037Y-64361872D01*
X117641365Y-64316744D01*
X117605897Y-64237493D01*
X117567604Y-64093262D01*
X117518389Y-63858178D01*
X117458478Y-63574305D01*
X117340824Y-62893053D01*
X117067516Y-63717372D01*
X116986916Y-63977125D01*
X116934203Y-64123705D01*
X116884456Y-64230038D01*
X116839065Y-64294019D01*
X116788428Y-64328775D01*
X116730095Y-64340192D01*
X116681847Y-64330516D01*
X116640190Y-64301011D01*
X116603089Y-64246402D01*
X116575670Y-64184527D01*
X116548378Y-64100101D01*
X116508811Y-63948426D01*
X116380779Y-63456300D01*
X116265545Y-62914913D01*
X116216330Y-63160499D01*
X116040109Y-63884801D01*
X116020426Y-64027100D01*
X115971843Y-64262034D01*
X115936358Y-64325509D01*
X115892124Y-64359927D01*
X115836532Y-64371455D01*
X115775967Y-64359145D01*
X115730043Y-64323095D01*
X115704670Y-64277650D01*
X115695849Y-64220879D01*
X115704867Y-64068139D01*
X115734720Y-63881324D01*
X115790126Y-63654480D01*
X115940336Y-63103590D01*
X116019592Y-62672990D01*
X116067544Y-62469053D01*
X116110054Y-62345599D01*
X116146721Y-62277927D01*
X116187735Y-62232480D01*
X116232202Y-62207085D01*
X116282031Y-62198670D01*
X116334870Y-62209302D01*
X116378238Y-62241203D01*
X116414533Y-62299787D01*
X116462502Y-62453770D01*
X116529327Y-62795966D01*
X116584412Y-63094020D01*
X116658922Y-63417830D01*
X116754641Y-63769274D01*
X116882537Y-63416024D01*
X116999180Y-63050752D01*
X117104397Y-62672990D01*
X117145430Y-62473321D01*
X117175464Y-62359765D01*
X117209666Y-62279271D01*
X117251446Y-62224027D01*
X117299353Y-62193312D01*
X117355845Y-62183039D01*
X117404878Y-62193810D01*
X117450174Y-62227940D01*
X117493776Y-62293673D01*
X117534753Y-62405056D01*
X117555483Y-62503884D01*
X117587998Y-62727700D01*
X117649604Y-63140042D01*
X117717028Y-63489506D01*
X117788888Y-63783074D01*
X117855810Y-64018157D01*
X117899041Y-64193000D01*
X117907834Y-64254462D01*
X117896729Y-64309400D01*
X117863382Y-64354602D01*
X117815693Y-64384998D01*
X117762998Y-64394902D01*
G37*
G36*
X119615824Y-62527543D02*
G01*
X119528385Y-62687400D01*
X119293301Y-63267843D01*
X119156664Y-63583037D01*
X119036480Y-63838761D01*
X118865754Y-64145042D01*
X118793336Y-64293297D01*
X118758282Y-64338129D01*
X118718442Y-64363107D01*
X118671825Y-64371455D01*
X118621500Y-64361788D01*
X118574739Y-64331765D01*
X118541940Y-64287262D01*
X118531019Y-64233213D01*
X118550889Y-64165945D01*
X118659491Y-63941832D01*
X118827530Y-63626148D01*
X118668550Y-63410119D01*
X118567682Y-63249282D01*
X118510503Y-63132167D01*
X118434443Y-62974150D01*
X118305583Y-62764337D01*
X118074652Y-62410185D01*
X118059092Y-62372926D01*
X118054135Y-62336912D01*
X118064862Y-62283285D01*
X118097122Y-62238726D01*
X118143571Y-62208492D01*
X118194819Y-62198670D01*
X118236408Y-62205414D01*
X118273253Y-62225629D01*
X118306927Y-62261441D01*
X118416225Y-62430213D01*
X118607468Y-62721472D01*
X118701287Y-62887758D01*
X118767324Y-63031783D01*
X118829665Y-63151828D01*
X118960032Y-63340750D01*
X119272907Y-62581399D01*
X119420430Y-62291483D01*
X119452910Y-62238409D01*
X119494353Y-62208798D01*
X119547558Y-62198670D01*
X119598920Y-62208099D01*
X119645133Y-62236894D01*
X119677352Y-62280297D01*
X119688242Y-62335080D01*
X119674015Y-62403872D01*
X119615824Y-62527543D01*
G37*
G36*
X122553943Y-64394902D02*
G01*
X122502915Y-64387184D01*
X122465905Y-64365834D01*
X122439289Y-64330292D01*
X122422785Y-64275956D01*
X122373570Y-63852194D01*
X122327164Y-63428433D01*
X122308716Y-63335252D01*
X122280636Y-63243908D01*
X122242763Y-63166041D01*
X122209747Y-63130690D01*
X122179641Y-63120931D01*
X122120906Y-63136359D01*
X121991086Y-63206416D01*
X121873030Y-63284395D01*
X121818895Y-63332690D01*
X121825733Y-63587924D01*
X121866644Y-63950380D01*
X121886843Y-64155777D01*
X121892656Y-64304654D01*
X121883006Y-64359761D01*
X121855043Y-64403084D01*
X121812776Y-64431901D01*
X121758811Y-64441797D01*
X121704835Y-64431878D01*
X121662457Y-64402962D01*
X121634594Y-64359514D01*
X121624966Y-64304166D01*
X121617918Y-64119712D01*
X121591504Y-63817146D01*
X121565091Y-63514579D01*
X121558043Y-63330125D01*
X121546464Y-63194729D01*
X121517010Y-63105300D01*
X121424243Y-63160248D01*
X121323082Y-63247693D01*
X121161881Y-63428311D01*
X121092150Y-63514529D01*
X121077129Y-63756818D01*
X121062108Y-63993489D01*
X121075053Y-64108527D01*
X121087998Y-64215261D01*
X121077614Y-64266828D01*
X121046354Y-64309661D01*
X121001047Y-64338445D01*
X120948657Y-64348007D01*
X120900514Y-64337800D01*
X120861063Y-64306850D01*
X120828185Y-64248810D01*
X120804042Y-64151118D01*
X120794296Y-63996786D01*
X120809317Y-63752177D01*
X120824338Y-63507568D01*
X120811271Y-63290314D01*
X120798326Y-63071594D01*
X120807055Y-62935748D01*
X120828713Y-62849531D01*
X120858298Y-62798102D01*
X120893960Y-62770534D01*
X120937666Y-62761406D01*
X120987585Y-62772245D01*
X121035364Y-62806835D01*
X121069136Y-62855541D01*
X121079816Y-62906853D01*
X121072977Y-62987575D01*
X121066138Y-63070862D01*
X121068825Y-63214232D01*
X121122609Y-63121421D01*
X121191814Y-63033489D01*
X121277897Y-62949961D01*
X121375014Y-62878294D01*
X121451538Y-62842209D01*
X121512858Y-62831748D01*
X121612713Y-62845471D01*
X121692480Y-62884460D01*
X121757092Y-62949560D01*
X121808026Y-63046804D01*
X121891200Y-62958771D01*
X121986934Y-62897205D01*
X122096129Y-62860304D01*
X122224704Y-62847379D01*
X122310513Y-62857319D01*
X122382143Y-62885703D01*
X122442830Y-62932453D01*
X122494243Y-63000201D01*
X122536236Y-63093943D01*
X122552661Y-63176604D01*
X122592290Y-63478747D01*
X122631044Y-63753668D01*
X122690597Y-64263377D01*
X122683505Y-64313958D01*
X122653717Y-64356556D01*
X122608544Y-64385205D01*
X122553943Y-64394902D01*
G37*
G36*
X123764889Y-62861578D02*
G01*
X123910346Y-62908806D01*
X124002215Y-62955689D01*
X124057653Y-63001570D01*
X124086887Y-63046746D01*
X124096093Y-63093210D01*
X124089407Y-63127749D01*
X124068860Y-63158789D01*
X124047611Y-63329637D01*
X124038818Y-63634208D01*
X124044694Y-63794727D01*
X124062021Y-63901898D01*
X124084744Y-63976095D01*
X124148116Y-64142355D01*
X124179502Y-64214773D01*
X124187684Y-64237976D01*
X124178016Y-64288065D01*
X124149460Y-64328102D01*
X124107971Y-64354827D01*
X124060678Y-64363639D01*
X124031495Y-64353345D01*
X123966400Y-64304899D01*
X123910021Y-64250186D01*
X123874809Y-64207324D01*
X123746436Y-64270771D01*
X123643877Y-64312470D01*
X123547376Y-64340170D01*
X123477304Y-64348007D01*
X123317743Y-64334936D01*
X123191041Y-64298954D01*
X123090547Y-64243073D01*
X123011410Y-64167634D01*
X122955524Y-64080700D01*
X122912366Y-63969113D01*
X122883871Y-63827217D01*
X122874041Y-63658998D01*
X123142569Y-63658998D01*
X123153036Y-63806601D01*
X123180764Y-63915322D01*
X123221825Y-63994100D01*
X123282243Y-64055241D01*
X123359661Y-64092435D01*
X123459596Y-64105719D01*
X123584230Y-64093071D01*
X123682223Y-64058091D01*
X123734893Y-64024038D01*
X123820220Y-63954532D01*
X123785637Y-63616058D01*
X123776501Y-63413779D01*
X123783950Y-63286528D01*
X123806543Y-63140104D01*
X123719715Y-63102003D01*
X123661707Y-63089668D01*
X123560009Y-63100317D01*
X123466525Y-63131775D01*
X123379067Y-63184786D01*
X123296197Y-63261982D01*
X123228216Y-63352654D01*
X123180712Y-63448076D01*
X123152230Y-63549592D01*
X123142569Y-63658998D01*
X122874041Y-63658998D01*
X122873413Y-63648252D01*
X122887950Y-63487133D01*
X122930422Y-63341050D01*
X123000714Y-63206904D01*
X123100803Y-63082463D01*
X123222191Y-62978121D01*
X123351613Y-62905609D01*
X123491194Y-62862167D01*
X123643999Y-62847379D01*
X123764889Y-62861578D01*
G37*
G36*
X125043389Y-64363639D02*
G01*
X124905560Y-64352439D01*
X124783480Y-64320134D01*
X124674376Y-64267576D01*
X124576152Y-64194134D01*
X124490609Y-64098878D01*
X124429812Y-63990834D01*
X124392442Y-63867453D01*
X124379414Y-63725066D01*
X124390078Y-63590535D01*
X124422894Y-63451287D01*
X124479841Y-63305659D01*
X124563818Y-63152072D01*
X124657447Y-63022448D01*
X124749366Y-62930775D01*
X124840245Y-62870075D01*
X124931566Y-62835346D01*
X125025559Y-62823932D01*
X125161983Y-62838490D01*
X125324756Y-62886580D01*
X125428899Y-62936438D01*
X125491147Y-62985284D01*
X125523653Y-63033276D01*
X125533828Y-63082585D01*
X125525320Y-63131355D01*
X125499634Y-63174543D01*
X125461212Y-63204784D01*
X125415004Y-63214721D01*
X125377647Y-63208780D01*
X125345883Y-63191273D01*
X125289219Y-63144989D01*
X125231581Y-63112767D01*
X125146808Y-63090466D01*
X125025559Y-63081853D01*
X124965065Y-63093612D01*
X124900785Y-63132106D01*
X124829580Y-63206450D01*
X124749565Y-63330370D01*
X124676134Y-63486580D01*
X124637050Y-63616341D01*
X124625245Y-63724822D01*
X124633469Y-63812927D01*
X124656919Y-63888057D01*
X124694892Y-63952756D01*
X124748221Y-64008754D01*
X124829624Y-64061472D01*
X124926654Y-64094160D01*
X125043389Y-64105719D01*
X125125599Y-64095516D01*
X125218267Y-64062488D01*
X125376780Y-63978834D01*
X125435521Y-63957219D01*
X125482218Y-63967091D01*
X125522959Y-63997519D01*
X125550742Y-64040903D01*
X125559840Y-64089476D01*
X125550464Y-64131238D01*
X125519135Y-64175790D01*
X125456689Y-64225608D01*
X125349425Y-64281818D01*
X125223566Y-64330520D01*
X125123161Y-64356074D01*
X125043389Y-64363639D01*
G37*
G36*
X126926867Y-63270408D02*
G01*
X126912497Y-63352210D01*
X126884608Y-63402624D01*
X126845063Y-63431278D01*
X126790213Y-63441378D01*
X126738223Y-63432739D01*
X126703427Y-63409217D01*
X126681268Y-63369572D01*
X126672733Y-63306800D01*
X126668703Y-63211668D01*
X126664551Y-63097484D01*
X126523458Y-63124274D01*
X126409840Y-63165320D01*
X126318947Y-63218873D01*
X126245478Y-63284642D01*
X126178008Y-63372393D01*
X126116714Y-63486197D01*
X126119401Y-64233702D01*
X126110074Y-64296538D01*
X126085374Y-64337218D01*
X126045387Y-64362113D01*
X125984090Y-64371455D01*
X125930956Y-64362598D01*
X125895362Y-64338465D01*
X125872669Y-64297744D01*
X125863922Y-64233213D01*
X125863922Y-63272240D01*
X125867342Y-63136807D01*
X125870761Y-63001252D01*
X125879508Y-62936721D01*
X125902200Y-62896001D01*
X125937795Y-62871868D01*
X125990929Y-62863011D01*
X126045273Y-62875130D01*
X126085453Y-62911072D01*
X126114038Y-62978693D01*
X126126239Y-63094675D01*
X126237809Y-62999614D01*
X126350743Y-62928497D01*
X126465935Y-62878933D01*
X126584610Y-62849451D01*
X126708270Y-62839564D01*
X126777531Y-62849363D01*
X126831333Y-62876979D01*
X126873500Y-62922973D01*
X126901675Y-62981435D01*
X126920908Y-63063027D01*
X126928211Y-63174665D01*
X126926867Y-63270408D01*
G37*
G36*
X127925647Y-62873250D02*
G01*
X128017432Y-62902754D01*
X128098432Y-62951130D01*
X128170482Y-63019879D01*
X128234299Y-63112261D01*
X128294485Y-63250869D01*
X128331173Y-63411060D01*
X128342255Y-63597205D01*
X128330123Y-63747277D01*
X128299173Y-63881885D01*
X128250367Y-64003309D01*
X128183741Y-64113412D01*
X128107194Y-64202695D01*
X128023859Y-64269770D01*
X127932852Y-64317132D01*
X127832539Y-64345919D01*
X127720657Y-64355823D01*
X127609412Y-64345174D01*
X127507891Y-64313913D01*
X127413881Y-64261799D01*
X127325838Y-64186929D01*
X127246435Y-64087855D01*
X127187434Y-63972711D01*
X127148705Y-63838576D01*
X127131787Y-63681591D01*
X127131804Y-63681224D01*
X127400943Y-63681224D01*
X127414139Y-63809287D01*
X127450740Y-63910394D01*
X127508898Y-63990558D01*
X127573519Y-64042137D01*
X127643340Y-64072155D01*
X127720657Y-64082271D01*
X127811039Y-64070685D01*
X127891620Y-64036518D01*
X127965144Y-63978224D01*
X128029044Y-63895068D01*
X128070344Y-63793178D01*
X128088120Y-63667547D01*
X128082617Y-63475176D01*
X128055341Y-63339648D01*
X128012567Y-63246858D01*
X127957332Y-63185780D01*
X127888836Y-63149539D01*
X127802600Y-63136563D01*
X127708007Y-63147911D01*
X127626213Y-63182351D01*
X127553947Y-63240946D01*
X127489725Y-63328171D01*
X127441004Y-63434398D01*
X127411210Y-63551325D01*
X127400943Y-63681224D01*
X127131804Y-63681224D01*
X127138761Y-63529335D01*
X127167291Y-63389605D01*
X127216720Y-63260245D01*
X127287492Y-63139494D01*
X127371454Y-63038553D01*
X127465072Y-62962232D01*
X127569515Y-62907898D01*
X127686937Y-62874572D01*
X127820308Y-62863011D01*
X127925647Y-62873250D01*
G37*
G36*
X128941871Y-62203799D02*
G01*
X128941871Y-63733248D01*
X128933537Y-63788949D01*
X128911423Y-63825093D01*
X128875522Y-63847274D01*
X128820360Y-63855614D01*
X128765132Y-63847271D01*
X128729195Y-63825083D01*
X128707066Y-63788938D01*
X128698727Y-63733248D01*
X128695308Y-63564965D01*
X128691888Y-63398025D01*
X128695308Y-62800851D01*
X128698727Y-62203799D01*
X128707066Y-62148110D01*
X128729195Y-62111965D01*
X128765132Y-62089777D01*
X128820360Y-62081434D01*
X128875522Y-62089773D01*
X128911423Y-62111955D01*
X128933537Y-62148099D01*
X128941871Y-62203799D01*
G37*
G36*
X128943214Y-64250432D02*
G01*
X128933678Y-64295722D01*
X128904257Y-64335429D01*
X128862412Y-64362617D01*
X128816208Y-64371455D01*
X128765276Y-64356082D01*
X128706909Y-64300746D01*
X128665526Y-64233459D01*
X128653664Y-64178381D01*
X128663192Y-64133315D01*
X128692499Y-64094239D01*
X128734588Y-64067586D01*
X128782014Y-64058824D01*
X128832021Y-64074042D01*
X128891313Y-64129532D01*
X128931708Y-64196549D01*
X128943214Y-64250432D01*
G37*
X111063705Y-43655752D02*
X111063705Y-44465276D01*
X111063705Y-44465276D02*
X111016086Y-44560514D01*
X111016086Y-44560514D02*
X110968467Y-44608133D01*
X110968467Y-44608133D02*
X110873229Y-44655752D01*
X110873229Y-44655752D02*
X110730372Y-44655752D01*
X110730372Y-44655752D02*
X110635134Y-44608133D01*
X111063705Y-44274800D02*
X110968467Y-44322419D01*
X110968467Y-44322419D02*
X110777991Y-44322419D01*
X110777991Y-44322419D02*
X110682753Y-44274800D01*
X110682753Y-44274800D02*
X110635134Y-44227180D01*
X110635134Y-44227180D02*
X110587515Y-44131942D01*
X110587515Y-44131942D02*
X110587515Y-43846228D01*
X110587515Y-43846228D02*
X110635134Y-43750990D01*
X110635134Y-43750990D02*
X110682753Y-43703371D01*
X110682753Y-43703371D02*
X110777991Y-43655752D01*
X110777991Y-43655752D02*
X110968467Y-43655752D01*
X110968467Y-43655752D02*
X111063705Y-43703371D01*
X111539896Y-44322419D02*
X111539896Y-43655752D01*
X111539896Y-43322419D02*
X111492277Y-43370038D01*
X111492277Y-43370038D02*
X111539896Y-43417657D01*
X111539896Y-43417657D02*
X111587515Y-43370038D01*
X111587515Y-43370038D02*
X111539896Y-43322419D01*
X111539896Y-43322419D02*
X111539896Y-43417657D01*
X111873229Y-43655752D02*
X112254181Y-43655752D01*
X112016086Y-43322419D02*
X112016086Y-44179561D01*
X112016086Y-44179561D02*
X112063705Y-44274800D01*
X112063705Y-44274800D02*
X112158943Y-44322419D01*
X112158943Y-44322419D02*
X112254181Y-44322419D01*
X112587515Y-44322419D02*
X112587515Y-43322419D01*
X113016086Y-44322419D02*
X113016086Y-43798609D01*
X113016086Y-43798609D02*
X112968467Y-43703371D01*
X112968467Y-43703371D02*
X112873229Y-43655752D01*
X112873229Y-43655752D02*
X112730372Y-43655752D01*
X112730372Y-43655752D02*
X112635134Y-43703371D01*
X112635134Y-43703371D02*
X112587515Y-43750990D01*
X113920848Y-43655752D02*
X113920848Y-44322419D01*
X113492277Y-43655752D02*
X113492277Y-44179561D01*
X113492277Y-44179561D02*
X113539896Y-44274800D01*
X113539896Y-44274800D02*
X113635134Y-44322419D01*
X113635134Y-44322419D02*
X113777991Y-44322419D01*
X113777991Y-44322419D02*
X113873229Y-44274800D01*
X113873229Y-44274800D02*
X113920848Y-44227180D01*
X114397039Y-44322419D02*
X114397039Y-43322419D01*
X114397039Y-43703371D02*
X114492277Y-43655752D01*
X114492277Y-43655752D02*
X114682753Y-43655752D01*
X114682753Y-43655752D02*
X114777991Y-43703371D01*
X114777991Y-43703371D02*
X114825610Y-43750990D01*
X114825610Y-43750990D02*
X114873229Y-43846228D01*
X114873229Y-43846228D02*
X114873229Y-44131942D01*
X114873229Y-44131942D02*
X114825610Y-44227180D01*
X114825610Y-44227180D02*
X114777991Y-44274800D01*
X114777991Y-44274800D02*
X114682753Y-44322419D01*
X114682753Y-44322419D02*
X114492277Y-44322419D01*
X114492277Y-44322419D02*
X114397039Y-44274800D01*
X115301801Y-44227180D02*
X115349420Y-44274800D01*
X115349420Y-44274800D02*
X115301801Y-44322419D01*
X115301801Y-44322419D02*
X115254182Y-44274800D01*
X115254182Y-44274800D02*
X115301801Y-44227180D01*
X115301801Y-44227180D02*
X115301801Y-44322419D01*
X116206562Y-44274800D02*
X116111324Y-44322419D01*
X116111324Y-44322419D02*
X115920848Y-44322419D01*
X115920848Y-44322419D02*
X115825610Y-44274800D01*
X115825610Y-44274800D02*
X115777991Y-44227180D01*
X115777991Y-44227180D02*
X115730372Y-44131942D01*
X115730372Y-44131942D02*
X115730372Y-43846228D01*
X115730372Y-43846228D02*
X115777991Y-43750990D01*
X115777991Y-43750990D02*
X115825610Y-43703371D01*
X115825610Y-43703371D02*
X115920848Y-43655752D01*
X115920848Y-43655752D02*
X116111324Y-43655752D01*
X116111324Y-43655752D02*
X116206562Y-43703371D01*
X116777991Y-44322419D02*
X116682753Y-44274800D01*
X116682753Y-44274800D02*
X116635134Y-44227180D01*
X116635134Y-44227180D02*
X116587515Y-44131942D01*
X116587515Y-44131942D02*
X116587515Y-43846228D01*
X116587515Y-43846228D02*
X116635134Y-43750990D01*
X116635134Y-43750990D02*
X116682753Y-43703371D01*
X116682753Y-43703371D02*
X116777991Y-43655752D01*
X116777991Y-43655752D02*
X116920848Y-43655752D01*
X116920848Y-43655752D02*
X117016086Y-43703371D01*
X117016086Y-43703371D02*
X117063705Y-43750990D01*
X117063705Y-43750990D02*
X117111324Y-43846228D01*
X117111324Y-43846228D02*
X117111324Y-44131942D01*
X117111324Y-44131942D02*
X117063705Y-44227180D01*
X117063705Y-44227180D02*
X117016086Y-44274800D01*
X117016086Y-44274800D02*
X116920848Y-44322419D01*
X116920848Y-44322419D02*
X116777991Y-44322419D01*
X117539896Y-44322419D02*
X117539896Y-43655752D01*
X117539896Y-43750990D02*
X117587515Y-43703371D01*
X117587515Y-43703371D02*
X117682753Y-43655752D01*
X117682753Y-43655752D02*
X117825610Y-43655752D01*
X117825610Y-43655752D02*
X117920848Y-43703371D01*
X117920848Y-43703371D02*
X117968467Y-43798609D01*
X117968467Y-43798609D02*
X117968467Y-44322419D01*
X117968467Y-43798609D02*
X118016086Y-43703371D01*
X118016086Y-43703371D02*
X118111324Y-43655752D01*
X118111324Y-43655752D02*
X118254181Y-43655752D01*
X118254181Y-43655752D02*
X118349420Y-43703371D01*
X118349420Y-43703371D02*
X118397039Y-43798609D01*
X118397039Y-43798609D02*
X118397039Y-44322419D01*
X119587514Y-43274800D02*
X118730372Y-44560514D01*
X120349419Y-44274800D02*
X120254181Y-44322419D01*
X120254181Y-44322419D02*
X120063705Y-44322419D01*
X120063705Y-44322419D02*
X119968467Y-44274800D01*
X119968467Y-44274800D02*
X119920848Y-44227180D01*
X119920848Y-44227180D02*
X119873229Y-44131942D01*
X119873229Y-44131942D02*
X119873229Y-43846228D01*
X119873229Y-43846228D02*
X119920848Y-43750990D01*
X119920848Y-43750990D02*
X119968467Y-43703371D01*
X119968467Y-43703371D02*
X120063705Y-43655752D01*
X120063705Y-43655752D02*
X120254181Y-43655752D01*
X120254181Y-43655752D02*
X120349419Y-43703371D01*
X120920848Y-44322419D02*
X120825610Y-44274800D01*
X120825610Y-44274800D02*
X120777991Y-44227180D01*
X120777991Y-44227180D02*
X120730372Y-44131942D01*
X120730372Y-44131942D02*
X120730372Y-43846228D01*
X120730372Y-43846228D02*
X120777991Y-43750990D01*
X120777991Y-43750990D02*
X120825610Y-43703371D01*
X120825610Y-43703371D02*
X120920848Y-43655752D01*
X120920848Y-43655752D02*
X121063705Y-43655752D01*
X121063705Y-43655752D02*
X121158943Y-43703371D01*
X121158943Y-43703371D02*
X121206562Y-43750990D01*
X121206562Y-43750990D02*
X121254181Y-43846228D01*
X121254181Y-43846228D02*
X121254181Y-44131942D01*
X121254181Y-44131942D02*
X121206562Y-44227180D01*
X121206562Y-44227180D02*
X121158943Y-44274800D01*
X121158943Y-44274800D02*
X121063705Y-44322419D01*
X121063705Y-44322419D02*
X120920848Y-44322419D01*
X121825610Y-44322419D02*
X121730372Y-44274800D01*
X121730372Y-44274800D02*
X121682753Y-44179561D01*
X121682753Y-44179561D02*
X121682753Y-43322419D01*
X122349420Y-44322419D02*
X122254182Y-44274800D01*
X122254182Y-44274800D02*
X122206563Y-44227180D01*
X122206563Y-44227180D02*
X122158944Y-44131942D01*
X122158944Y-44131942D02*
X122158944Y-43846228D01*
X122158944Y-43846228D02*
X122206563Y-43750990D01*
X122206563Y-43750990D02*
X122254182Y-43703371D01*
X122254182Y-43703371D02*
X122349420Y-43655752D01*
X122349420Y-43655752D02*
X122492277Y-43655752D01*
X122492277Y-43655752D02*
X122587515Y-43703371D01*
X122587515Y-43703371D02*
X122635134Y-43750990D01*
X122635134Y-43750990D02*
X122682753Y-43846228D01*
X122682753Y-43846228D02*
X122682753Y-44131942D01*
X122682753Y-44131942D02*
X122635134Y-44227180D01*
X122635134Y-44227180D02*
X122587515Y-44274800D01*
X122587515Y-44274800D02*
X122492277Y-44322419D01*
X122492277Y-44322419D02*
X122349420Y-44322419D01*
X123111325Y-44322419D02*
X123111325Y-43655752D01*
X123111325Y-43846228D02*
X123158944Y-43750990D01*
X123158944Y-43750990D02*
X123206563Y-43703371D01*
X123206563Y-43703371D02*
X123301801Y-43655752D01*
X123301801Y-43655752D02*
X123397039Y-43655752D01*
X123730373Y-44322419D02*
X123730373Y-43322419D01*
X123730373Y-43703371D02*
X123825611Y-43655752D01*
X123825611Y-43655752D02*
X124016087Y-43655752D01*
X124016087Y-43655752D02*
X124111325Y-43703371D01*
X124111325Y-43703371D02*
X124158944Y-43750990D01*
X124158944Y-43750990D02*
X124206563Y-43846228D01*
X124206563Y-43846228D02*
X124206563Y-44131942D01*
X124206563Y-44131942D02*
X124158944Y-44227180D01*
X124158944Y-44227180D02*
X124111325Y-44274800D01*
X124111325Y-44274800D02*
X124016087Y-44322419D01*
X124016087Y-44322419D02*
X123825611Y-44322419D01*
X123825611Y-44322419D02*
X123730373Y-44274800D01*
X125063706Y-44322419D02*
X125063706Y-43798609D01*
X125063706Y-43798609D02*
X125016087Y-43703371D01*
X125016087Y-43703371D02*
X124920849Y-43655752D01*
X124920849Y-43655752D02*
X124730373Y-43655752D01*
X124730373Y-43655752D02*
X124635135Y-43703371D01*
X125063706Y-44274800D02*
X124968468Y-44322419D01*
X124968468Y-44322419D02*
X124730373Y-44322419D01*
X124730373Y-44322419D02*
X124635135Y-44274800D01*
X124635135Y-44274800D02*
X124587516Y-44179561D01*
X124587516Y-44179561D02*
X124587516Y-44084323D01*
X124587516Y-44084323D02*
X124635135Y-43989085D01*
X124635135Y-43989085D02*
X124730373Y-43941466D01*
X124730373Y-43941466D02*
X124968468Y-43941466D01*
X124968468Y-43941466D02*
X125063706Y-43893847D01*
X125539897Y-43655752D02*
X125539897Y-44322419D01*
X125539897Y-43750990D02*
X125587516Y-43703371D01*
X125587516Y-43703371D02*
X125682754Y-43655752D01*
X125682754Y-43655752D02*
X125825611Y-43655752D01*
X125825611Y-43655752D02*
X125920849Y-43703371D01*
X125920849Y-43703371D02*
X125968468Y-43798609D01*
X125968468Y-43798609D02*
X125968468Y-44322419D01*
X126873230Y-44322419D02*
X126873230Y-43322419D01*
X126873230Y-44274800D02*
X126777992Y-44322419D01*
X126777992Y-44322419D02*
X126587516Y-44322419D01*
X126587516Y-44322419D02*
X126492278Y-44274800D01*
X126492278Y-44274800D02*
X126444659Y-44227180D01*
X126444659Y-44227180D02*
X126397040Y-44131942D01*
X126397040Y-44131942D02*
X126397040Y-43846228D01*
X126397040Y-43846228D02*
X126444659Y-43750990D01*
X126444659Y-43750990D02*
X126492278Y-43703371D01*
X126492278Y-43703371D02*
X126587516Y-43655752D01*
X126587516Y-43655752D02*
X126777992Y-43655752D01*
X126777992Y-43655752D02*
X126873230Y-43703371D01*
X127730373Y-44274800D02*
X127635135Y-44322419D01*
X127635135Y-44322419D02*
X127444659Y-44322419D01*
X127444659Y-44322419D02*
X127349421Y-44274800D01*
X127349421Y-44274800D02*
X127301802Y-44179561D01*
X127301802Y-44179561D02*
X127301802Y-43798609D01*
X127301802Y-43798609D02*
X127349421Y-43703371D01*
X127349421Y-43703371D02*
X127444659Y-43655752D01*
X127444659Y-43655752D02*
X127635135Y-43655752D01*
X127635135Y-43655752D02*
X127730373Y-43703371D01*
X127730373Y-43703371D02*
X127777992Y-43798609D01*
X127777992Y-43798609D02*
X127777992Y-43893847D01*
X127777992Y-43893847D02*
X127301802Y-43989085D01*
X128635135Y-44322419D02*
X128635135Y-43322419D01*
X128635135Y-44274800D02*
X128539897Y-44322419D01*
X128539897Y-44322419D02*
X128349421Y-44322419D01*
X128349421Y-44322419D02*
X128254183Y-44274800D01*
X128254183Y-44274800D02*
X128206564Y-44227180D01*
X128206564Y-44227180D02*
X128158945Y-44131942D01*
X128158945Y-44131942D02*
X128158945Y-43846228D01*
X128158945Y-43846228D02*
X128206564Y-43750990D01*
X128206564Y-43750990D02*
X128254183Y-43703371D01*
X128254183Y-43703371D02*
X128349421Y-43655752D01*
X128349421Y-43655752D02*
X128539897Y-43655752D01*
X128539897Y-43655752D02*
X128635135Y-43703371D01*
X129825611Y-43274800D02*
X128968469Y-44560514D01*
D11*
X111205695Y-41401570D02*
X111205695Y-40701570D01*
X111205695Y-40968237D02*
X111272362Y-40934903D01*
X111272362Y-40934903D02*
X111405695Y-40934903D01*
X111405695Y-40934903D02*
X111472362Y-40968237D01*
X111472362Y-40968237D02*
X111505695Y-41001570D01*
X111505695Y-41001570D02*
X111539029Y-41068237D01*
X111539029Y-41068237D02*
X111539029Y-41268237D01*
X111539029Y-41268237D02*
X111505695Y-41334903D01*
X111505695Y-41334903D02*
X111472362Y-41368237D01*
X111472362Y-41368237D02*
X111405695Y-41401570D01*
X111405695Y-41401570D02*
X111272362Y-41401570D01*
X111272362Y-41401570D02*
X111205695Y-41368237D01*
X112139028Y-41401570D02*
X112139028Y-41034903D01*
X112139028Y-41034903D02*
X112105695Y-40968237D01*
X112105695Y-40968237D02*
X112039028Y-40934903D01*
X112039028Y-40934903D02*
X111905695Y-40934903D01*
X111905695Y-40934903D02*
X111839028Y-40968237D01*
X112139028Y-41368237D02*
X112072362Y-41401570D01*
X112072362Y-41401570D02*
X111905695Y-41401570D01*
X111905695Y-41401570D02*
X111839028Y-41368237D01*
X111839028Y-41368237D02*
X111805695Y-41301570D01*
X111805695Y-41301570D02*
X111805695Y-41234903D01*
X111805695Y-41234903D02*
X111839028Y-41168237D01*
X111839028Y-41168237D02*
X111905695Y-41134903D01*
X111905695Y-41134903D02*
X112072362Y-41134903D01*
X112072362Y-41134903D02*
X112139028Y-41101570D01*
X112772361Y-41401570D02*
X112772361Y-40701570D01*
X112772361Y-41368237D02*
X112705695Y-41401570D01*
X112705695Y-41401570D02*
X112572361Y-41401570D01*
X112572361Y-41401570D02*
X112505695Y-41368237D01*
X112505695Y-41368237D02*
X112472361Y-41334903D01*
X112472361Y-41334903D02*
X112439028Y-41268237D01*
X112439028Y-41268237D02*
X112439028Y-41068237D01*
X112439028Y-41068237D02*
X112472361Y-41001570D01*
X112472361Y-41001570D02*
X112505695Y-40968237D01*
X112505695Y-40968237D02*
X112572361Y-40934903D01*
X112572361Y-40934903D02*
X112705695Y-40934903D01*
X112705695Y-40934903D02*
X112772361Y-40968237D01*
X113639027Y-40934903D02*
X113639027Y-41634903D01*
X113639027Y-40968237D02*
X113705694Y-40934903D01*
X113705694Y-40934903D02*
X113839027Y-40934903D01*
X113839027Y-40934903D02*
X113905694Y-40968237D01*
X113905694Y-40968237D02*
X113939027Y-41001570D01*
X113939027Y-41001570D02*
X113972361Y-41068237D01*
X113972361Y-41068237D02*
X113972361Y-41268237D01*
X113972361Y-41268237D02*
X113939027Y-41334903D01*
X113939027Y-41334903D02*
X113905694Y-41368237D01*
X113905694Y-41368237D02*
X113839027Y-41401570D01*
X113839027Y-41401570D02*
X113705694Y-41401570D01*
X113705694Y-41401570D02*
X113639027Y-41368237D01*
X114572360Y-41368237D02*
X114505694Y-41401570D01*
X114505694Y-41401570D02*
X114372360Y-41401570D01*
X114372360Y-41401570D02*
X114305694Y-41368237D01*
X114305694Y-41368237D02*
X114272360Y-41334903D01*
X114272360Y-41334903D02*
X114239027Y-41268237D01*
X114239027Y-41268237D02*
X114239027Y-41068237D01*
X114239027Y-41068237D02*
X114272360Y-41001570D01*
X114272360Y-41001570D02*
X114305694Y-40968237D01*
X114305694Y-40968237D02*
X114372360Y-40934903D01*
X114372360Y-40934903D02*
X114505694Y-40934903D01*
X114505694Y-40934903D02*
X114572360Y-40968237D01*
X114872360Y-41401570D02*
X114872360Y-40701570D01*
X114872360Y-40968237D02*
X114939027Y-40934903D01*
X114939027Y-40934903D02*
X115072360Y-40934903D01*
X115072360Y-40934903D02*
X115139027Y-40968237D01*
X115139027Y-40968237D02*
X115172360Y-41001570D01*
X115172360Y-41001570D02*
X115205694Y-41068237D01*
X115205694Y-41068237D02*
X115205694Y-41268237D01*
X115205694Y-41268237D02*
X115172360Y-41334903D01*
X115172360Y-41334903D02*
X115139027Y-41368237D01*
X115139027Y-41368237D02*
X115072360Y-41401570D01*
X115072360Y-41401570D02*
X114939027Y-41401570D01*
X114939027Y-41401570D02*
X114872360Y-41368237D01*
X116339026Y-41401570D02*
X116339026Y-40701570D01*
X116339026Y-41368237D02*
X116272360Y-41401570D01*
X116272360Y-41401570D02*
X116139026Y-41401570D01*
X116139026Y-41401570D02*
X116072360Y-41368237D01*
X116072360Y-41368237D02*
X116039026Y-41334903D01*
X116039026Y-41334903D02*
X116005693Y-41268237D01*
X116005693Y-41268237D02*
X116005693Y-41068237D01*
X116005693Y-41068237D02*
X116039026Y-41001570D01*
X116039026Y-41001570D02*
X116072360Y-40968237D01*
X116072360Y-40968237D02*
X116139026Y-40934903D01*
X116139026Y-40934903D02*
X116272360Y-40934903D01*
X116272360Y-40934903D02*
X116339026Y-40968237D01*
X116939026Y-41368237D02*
X116872359Y-41401570D01*
X116872359Y-41401570D02*
X116739026Y-41401570D01*
X116739026Y-41401570D02*
X116672359Y-41368237D01*
X116672359Y-41368237D02*
X116639026Y-41301570D01*
X116639026Y-41301570D02*
X116639026Y-41034903D01*
X116639026Y-41034903D02*
X116672359Y-40968237D01*
X116672359Y-40968237D02*
X116739026Y-40934903D01*
X116739026Y-40934903D02*
X116872359Y-40934903D01*
X116872359Y-40934903D02*
X116939026Y-40968237D01*
X116939026Y-40968237D02*
X116972359Y-41034903D01*
X116972359Y-41034903D02*
X116972359Y-41101570D01*
X116972359Y-41101570D02*
X116639026Y-41168237D01*
X117239026Y-41368237D02*
X117305693Y-41401570D01*
X117305693Y-41401570D02*
X117439026Y-41401570D01*
X117439026Y-41401570D02*
X117505693Y-41368237D01*
X117505693Y-41368237D02*
X117539026Y-41301570D01*
X117539026Y-41301570D02*
X117539026Y-41268237D01*
X117539026Y-41268237D02*
X117505693Y-41201570D01*
X117505693Y-41201570D02*
X117439026Y-41168237D01*
X117439026Y-41168237D02*
X117339026Y-41168237D01*
X117339026Y-41168237D02*
X117272359Y-41134903D01*
X117272359Y-41134903D02*
X117239026Y-41068237D01*
X117239026Y-41068237D02*
X117239026Y-41034903D01*
X117239026Y-41034903D02*
X117272359Y-40968237D01*
X117272359Y-40968237D02*
X117339026Y-40934903D01*
X117339026Y-40934903D02*
X117439026Y-40934903D01*
X117439026Y-40934903D02*
X117505693Y-40968237D01*
X117839026Y-41401570D02*
X117839026Y-40934903D01*
X117839026Y-40701570D02*
X117805693Y-40734903D01*
X117805693Y-40734903D02*
X117839026Y-40768237D01*
X117839026Y-40768237D02*
X117872360Y-40734903D01*
X117872360Y-40734903D02*
X117839026Y-40701570D01*
X117839026Y-40701570D02*
X117839026Y-40768237D01*
X118472359Y-40934903D02*
X118472359Y-41501570D01*
X118472359Y-41501570D02*
X118439026Y-41568237D01*
X118439026Y-41568237D02*
X118405693Y-41601570D01*
X118405693Y-41601570D02*
X118339026Y-41634903D01*
X118339026Y-41634903D02*
X118239026Y-41634903D01*
X118239026Y-41634903D02*
X118172359Y-41601570D01*
X118472359Y-41368237D02*
X118405693Y-41401570D01*
X118405693Y-41401570D02*
X118272359Y-41401570D01*
X118272359Y-41401570D02*
X118205693Y-41368237D01*
X118205693Y-41368237D02*
X118172359Y-41334903D01*
X118172359Y-41334903D02*
X118139026Y-41268237D01*
X118139026Y-41268237D02*
X118139026Y-41068237D01*
X118139026Y-41068237D02*
X118172359Y-41001570D01*
X118172359Y-41001570D02*
X118205693Y-40968237D01*
X118205693Y-40968237D02*
X118272359Y-40934903D01*
X118272359Y-40934903D02*
X118405693Y-40934903D01*
X118405693Y-40934903D02*
X118472359Y-40968237D01*
X118805692Y-40934903D02*
X118805692Y-41401570D01*
X118805692Y-41001570D02*
X118839026Y-40968237D01*
X118839026Y-40968237D02*
X118905692Y-40934903D01*
X118905692Y-40934903D02*
X119005692Y-40934903D01*
X119005692Y-40934903D02*
X119072359Y-40968237D01*
X119072359Y-40968237D02*
X119105692Y-41034903D01*
X119105692Y-41034903D02*
X119105692Y-41401570D01*
X119705692Y-41368237D02*
X119639025Y-41401570D01*
X119639025Y-41401570D02*
X119505692Y-41401570D01*
X119505692Y-41401570D02*
X119439025Y-41368237D01*
X119439025Y-41368237D02*
X119405692Y-41301570D01*
X119405692Y-41301570D02*
X119405692Y-41034903D01*
X119405692Y-41034903D02*
X119439025Y-40968237D01*
X119439025Y-40968237D02*
X119505692Y-40934903D01*
X119505692Y-40934903D02*
X119639025Y-40934903D01*
X119639025Y-40934903D02*
X119705692Y-40968237D01*
X119705692Y-40968237D02*
X119739025Y-41034903D01*
X119739025Y-41034903D02*
X119739025Y-41101570D01*
X119739025Y-41101570D02*
X119405692Y-41168237D01*
X120039025Y-41401570D02*
X120039025Y-40934903D01*
X120039025Y-41068237D02*
X120072359Y-41001570D01*
X120072359Y-41001570D02*
X120105692Y-40968237D01*
X120105692Y-40968237D02*
X120172359Y-40934903D01*
X120172359Y-40934903D02*
X120239025Y-40934903D01*
X112105693Y-42061864D02*
X112372360Y-42061864D01*
X112205693Y-42528531D02*
X112205693Y-41928531D01*
X112205693Y-41928531D02*
X112239027Y-41861864D01*
X112239027Y-41861864D02*
X112305693Y-41828531D01*
X112305693Y-41828531D02*
X112372360Y-41828531D01*
X112905693Y-42061864D02*
X112905693Y-42528531D01*
X112605693Y-42061864D02*
X112605693Y-42428531D01*
X112605693Y-42428531D02*
X112639027Y-42495198D01*
X112639027Y-42495198D02*
X112705693Y-42528531D01*
X112705693Y-42528531D02*
X112805693Y-42528531D01*
X112805693Y-42528531D02*
X112872360Y-42495198D01*
X112872360Y-42495198D02*
X112905693Y-42461864D01*
X113205693Y-42495198D02*
X113272360Y-42528531D01*
X113272360Y-42528531D02*
X113405693Y-42528531D01*
X113405693Y-42528531D02*
X113472360Y-42495198D01*
X113472360Y-42495198D02*
X113505693Y-42428531D01*
X113505693Y-42428531D02*
X113505693Y-42395198D01*
X113505693Y-42395198D02*
X113472360Y-42328531D01*
X113472360Y-42328531D02*
X113405693Y-42295198D01*
X113405693Y-42295198D02*
X113305693Y-42295198D01*
X113305693Y-42295198D02*
X113239026Y-42261864D01*
X113239026Y-42261864D02*
X113205693Y-42195198D01*
X113205693Y-42195198D02*
X113205693Y-42161864D01*
X113205693Y-42161864D02*
X113239026Y-42095198D01*
X113239026Y-42095198D02*
X113305693Y-42061864D01*
X113305693Y-42061864D02*
X113405693Y-42061864D01*
X113405693Y-42061864D02*
X113472360Y-42095198D01*
X113805693Y-42528531D02*
X113805693Y-42061864D01*
X113805693Y-41828531D02*
X113772360Y-41861864D01*
X113772360Y-41861864D02*
X113805693Y-41895198D01*
X113805693Y-41895198D02*
X113839027Y-41861864D01*
X113839027Y-41861864D02*
X113805693Y-41828531D01*
X113805693Y-41828531D02*
X113805693Y-41895198D01*
X114239026Y-42528531D02*
X114172360Y-42495198D01*
X114172360Y-42495198D02*
X114139026Y-42461864D01*
X114139026Y-42461864D02*
X114105693Y-42395198D01*
X114105693Y-42395198D02*
X114105693Y-42195198D01*
X114105693Y-42195198D02*
X114139026Y-42128531D01*
X114139026Y-42128531D02*
X114172360Y-42095198D01*
X114172360Y-42095198D02*
X114239026Y-42061864D01*
X114239026Y-42061864D02*
X114339026Y-42061864D01*
X114339026Y-42061864D02*
X114405693Y-42095198D01*
X114405693Y-42095198D02*
X114439026Y-42128531D01*
X114439026Y-42128531D02*
X114472360Y-42195198D01*
X114472360Y-42195198D02*
X114472360Y-42395198D01*
X114472360Y-42395198D02*
X114439026Y-42461864D01*
X114439026Y-42461864D02*
X114405693Y-42495198D01*
X114405693Y-42495198D02*
X114339026Y-42528531D01*
X114339026Y-42528531D02*
X114239026Y-42528531D01*
X114772359Y-42061864D02*
X114772359Y-42528531D01*
X114772359Y-42128531D02*
X114805693Y-42095198D01*
X114805693Y-42095198D02*
X114872359Y-42061864D01*
X114872359Y-42061864D02*
X114972359Y-42061864D01*
X114972359Y-42061864D02*
X115039026Y-42095198D01*
X115039026Y-42095198D02*
X115072359Y-42161864D01*
X115072359Y-42161864D02*
X115072359Y-42528531D01*
X115339026Y-41828531D02*
X115772359Y-41828531D01*
X115772359Y-41828531D02*
X115539026Y-42095198D01*
X115539026Y-42095198D02*
X115639026Y-42095198D01*
X115639026Y-42095198D02*
X115705692Y-42128531D01*
X115705692Y-42128531D02*
X115739026Y-42161864D01*
X115739026Y-42161864D02*
X115772359Y-42228531D01*
X115772359Y-42228531D02*
X115772359Y-42395198D01*
X115772359Y-42395198D02*
X115739026Y-42461864D01*
X115739026Y-42461864D02*
X115705692Y-42495198D01*
X115705692Y-42495198D02*
X115639026Y-42528531D01*
X115639026Y-42528531D02*
X115439026Y-42528531D01*
X115439026Y-42528531D02*
X115372359Y-42495198D01*
X115372359Y-42495198D02*
X115339026Y-42461864D01*
X116372359Y-41828531D02*
X116239026Y-41828531D01*
X116239026Y-41828531D02*
X116172359Y-41861864D01*
X116172359Y-41861864D02*
X116139026Y-41895198D01*
X116139026Y-41895198D02*
X116072359Y-41995198D01*
X116072359Y-41995198D02*
X116039026Y-42128531D01*
X116039026Y-42128531D02*
X116039026Y-42395198D01*
X116039026Y-42395198D02*
X116072359Y-42461864D01*
X116072359Y-42461864D02*
X116105693Y-42495198D01*
X116105693Y-42495198D02*
X116172359Y-42528531D01*
X116172359Y-42528531D02*
X116305693Y-42528531D01*
X116305693Y-42528531D02*
X116372359Y-42495198D01*
X116372359Y-42495198D02*
X116405693Y-42461864D01*
X116405693Y-42461864D02*
X116439026Y-42395198D01*
X116439026Y-42395198D02*
X116439026Y-42228531D01*
X116439026Y-42228531D02*
X116405693Y-42161864D01*
X116405693Y-42161864D02*
X116372359Y-42128531D01*
X116372359Y-42128531D02*
X116305693Y-42095198D01*
X116305693Y-42095198D02*
X116172359Y-42095198D01*
X116172359Y-42095198D02*
X116105693Y-42128531D01*
X116105693Y-42128531D02*
X116072359Y-42161864D01*
X116072359Y-42161864D02*
X116039026Y-42228531D01*
X116872360Y-41828531D02*
X116939026Y-41828531D01*
X116939026Y-41828531D02*
X117005693Y-41861864D01*
X117005693Y-41861864D02*
X117039026Y-41895198D01*
X117039026Y-41895198D02*
X117072360Y-41961864D01*
X117072360Y-41961864D02*
X117105693Y-42095198D01*
X117105693Y-42095198D02*
X117105693Y-42261864D01*
X117105693Y-42261864D02*
X117072360Y-42395198D01*
X117072360Y-42395198D02*
X117039026Y-42461864D01*
X117039026Y-42461864D02*
X117005693Y-42495198D01*
X117005693Y-42495198D02*
X116939026Y-42528531D01*
X116939026Y-42528531D02*
X116872360Y-42528531D01*
X116872360Y-42528531D02*
X116805693Y-42495198D01*
X116805693Y-42495198D02*
X116772360Y-42461864D01*
X116772360Y-42461864D02*
X116739026Y-42395198D01*
X116739026Y-42395198D02*
X116705693Y-42261864D01*
X116705693Y-42261864D02*
X116705693Y-42095198D01*
X116705693Y-42095198D02*
X116739026Y-41961864D01*
X116739026Y-41961864D02*
X116772360Y-41895198D01*
X116772360Y-41895198D02*
X116805693Y-41861864D01*
X116805693Y-41861864D02*
X116872360Y-41828531D01*
X117939026Y-42061864D02*
X117939026Y-42528531D01*
X117939026Y-42128531D02*
X117972360Y-42095198D01*
X117972360Y-42095198D02*
X118039026Y-42061864D01*
X118039026Y-42061864D02*
X118139026Y-42061864D01*
X118139026Y-42061864D02*
X118205693Y-42095198D01*
X118205693Y-42095198D02*
X118239026Y-42161864D01*
X118239026Y-42161864D02*
X118239026Y-42528531D01*
X118672359Y-42528531D02*
X118605693Y-42495198D01*
X118605693Y-42495198D02*
X118572359Y-42461864D01*
X118572359Y-42461864D02*
X118539026Y-42395198D01*
X118539026Y-42395198D02*
X118539026Y-42195198D01*
X118539026Y-42195198D02*
X118572359Y-42128531D01*
X118572359Y-42128531D02*
X118605693Y-42095198D01*
X118605693Y-42095198D02*
X118672359Y-42061864D01*
X118672359Y-42061864D02*
X118772359Y-42061864D01*
X118772359Y-42061864D02*
X118839026Y-42095198D01*
X118839026Y-42095198D02*
X118872359Y-42128531D01*
X118872359Y-42128531D02*
X118905693Y-42195198D01*
X118905693Y-42195198D02*
X118905693Y-42395198D01*
X118905693Y-42395198D02*
X118872359Y-42461864D01*
X118872359Y-42461864D02*
X118839026Y-42495198D01*
X118839026Y-42495198D02*
X118772359Y-42528531D01*
X118772359Y-42528531D02*
X118672359Y-42528531D01*
X119305692Y-42528531D02*
X119239026Y-42495198D01*
X119239026Y-42495198D02*
X119205692Y-42461864D01*
X119205692Y-42461864D02*
X119172359Y-42395198D01*
X119172359Y-42395198D02*
X119172359Y-42195198D01*
X119172359Y-42195198D02*
X119205692Y-42128531D01*
X119205692Y-42128531D02*
X119239026Y-42095198D01*
X119239026Y-42095198D02*
X119305692Y-42061864D01*
X119305692Y-42061864D02*
X119405692Y-42061864D01*
X119405692Y-42061864D02*
X119472359Y-42095198D01*
X119472359Y-42095198D02*
X119505692Y-42128531D01*
X119505692Y-42128531D02*
X119539026Y-42195198D01*
X119539026Y-42195198D02*
X119539026Y-42395198D01*
X119539026Y-42395198D02*
X119505692Y-42461864D01*
X119505692Y-42461864D02*
X119472359Y-42495198D01*
X119472359Y-42495198D02*
X119405692Y-42528531D01*
X119405692Y-42528531D02*
X119305692Y-42528531D01*
X119839025Y-42528531D02*
X119839025Y-41828531D01*
X119839025Y-42095198D02*
X119905692Y-42061864D01*
X119905692Y-42061864D02*
X120039025Y-42061864D01*
X120039025Y-42061864D02*
X120105692Y-42095198D01*
X120105692Y-42095198D02*
X120139025Y-42128531D01*
X120139025Y-42128531D02*
X120172359Y-42195198D01*
X120172359Y-42195198D02*
X120172359Y-42395198D01*
X120172359Y-42395198D02*
X120139025Y-42461864D01*
X120139025Y-42461864D02*
X120105692Y-42495198D01*
X120105692Y-42495198D02*
X120039025Y-42528531D01*
X120039025Y-42528531D02*
X119905692Y-42528531D01*
X119905692Y-42528531D02*
X119839025Y-42495198D01*
D10*
X114095848Y-67722121D02*
X114048229Y-67674502D01*
X114048229Y-67674502D02*
X113952991Y-67531645D01*
X113952991Y-67531645D02*
X113905372Y-67436407D01*
X113905372Y-67436407D02*
X113857753Y-67293550D01*
X113857753Y-67293550D02*
X113810134Y-67055454D01*
X113810134Y-67055454D02*
X113810134Y-66864978D01*
X113810134Y-66864978D02*
X113857753Y-66626883D01*
X113857753Y-66626883D02*
X113905372Y-66484026D01*
X113905372Y-66484026D02*
X113952991Y-66388788D01*
X113952991Y-66388788D02*
X114048229Y-66245930D01*
X114048229Y-66245930D02*
X114095848Y-66198311D01*
X114905372Y-67293550D02*
X114810134Y-67341169D01*
X114810134Y-67341169D02*
X114619658Y-67341169D01*
X114619658Y-67341169D02*
X114524420Y-67293550D01*
X114524420Y-67293550D02*
X114476801Y-67245930D01*
X114476801Y-67245930D02*
X114429182Y-67150692D01*
X114429182Y-67150692D02*
X114429182Y-66864978D01*
X114429182Y-66864978D02*
X114476801Y-66769740D01*
X114476801Y-66769740D02*
X114524420Y-66722121D01*
X114524420Y-66722121D02*
X114619658Y-66674502D01*
X114619658Y-66674502D02*
X114810134Y-66674502D01*
X114810134Y-66674502D02*
X114905372Y-66722121D01*
X115238706Y-67722121D02*
X115286325Y-67674502D01*
X115286325Y-67674502D02*
X115381563Y-67531645D01*
X115381563Y-67531645D02*
X115429182Y-67436407D01*
X115429182Y-67436407D02*
X115476801Y-67293550D01*
X115476801Y-67293550D02*
X115524420Y-67055454D01*
X115524420Y-67055454D02*
X115524420Y-66864978D01*
X115524420Y-66864978D02*
X115476801Y-66626883D01*
X115476801Y-66626883D02*
X115429182Y-66484026D01*
X115429182Y-66484026D02*
X115381563Y-66388788D01*
X115381563Y-66388788D02*
X115286325Y-66245930D01*
X115286325Y-66245930D02*
X115238706Y-66198311D01*
X116762516Y-67341169D02*
X116762516Y-66341169D01*
X116762516Y-66341169D02*
X117095849Y-67055454D01*
X117095849Y-67055454D02*
X117429182Y-66341169D01*
X117429182Y-66341169D02*
X117429182Y-67341169D01*
X117905373Y-67341169D02*
X117905373Y-66341169D01*
X118238706Y-66341169D02*
X118810134Y-66341169D01*
X118524420Y-67341169D02*
X118524420Y-66341169D01*
X120381563Y-67341169D02*
X119905373Y-67341169D01*
X119905373Y-67341169D02*
X119905373Y-66341169D01*
X120714897Y-67341169D02*
X120714897Y-66674502D01*
X120714897Y-66341169D02*
X120667278Y-66388788D01*
X120667278Y-66388788D02*
X120714897Y-66436407D01*
X120714897Y-66436407D02*
X120762516Y-66388788D01*
X120762516Y-66388788D02*
X120714897Y-66341169D01*
X120714897Y-66341169D02*
X120714897Y-66436407D01*
X121619658Y-67293550D02*
X121524420Y-67341169D01*
X121524420Y-67341169D02*
X121333944Y-67341169D01*
X121333944Y-67341169D02*
X121238706Y-67293550D01*
X121238706Y-67293550D02*
X121191087Y-67245930D01*
X121191087Y-67245930D02*
X121143468Y-67150692D01*
X121143468Y-67150692D02*
X121143468Y-66864978D01*
X121143468Y-66864978D02*
X121191087Y-66769740D01*
X121191087Y-66769740D02*
X121238706Y-66722121D01*
X121238706Y-66722121D02*
X121333944Y-66674502D01*
X121333944Y-66674502D02*
X121524420Y-66674502D01*
X121524420Y-66674502D02*
X121619658Y-66722121D01*
X122429182Y-67293550D02*
X122333944Y-67341169D01*
X122333944Y-67341169D02*
X122143468Y-67341169D01*
X122143468Y-67341169D02*
X122048230Y-67293550D01*
X122048230Y-67293550D02*
X122000611Y-67198311D01*
X122000611Y-67198311D02*
X122000611Y-66817359D01*
X122000611Y-66817359D02*
X122048230Y-66722121D01*
X122048230Y-66722121D02*
X122143468Y-66674502D01*
X122143468Y-66674502D02*
X122333944Y-66674502D01*
X122333944Y-66674502D02*
X122429182Y-66722121D01*
X122429182Y-66722121D02*
X122476801Y-66817359D01*
X122476801Y-66817359D02*
X122476801Y-66912597D01*
X122476801Y-66912597D02*
X122000611Y-67007835D01*
X122905373Y-66674502D02*
X122905373Y-67341169D01*
X122905373Y-66769740D02*
X122952992Y-66722121D01*
X122952992Y-66722121D02*
X123048230Y-66674502D01*
X123048230Y-66674502D02*
X123191087Y-66674502D01*
X123191087Y-66674502D02*
X123286325Y-66722121D01*
X123286325Y-66722121D02*
X123333944Y-66817359D01*
X123333944Y-66817359D02*
X123333944Y-67341169D01*
X123762516Y-67293550D02*
X123857754Y-67341169D01*
X123857754Y-67341169D02*
X124048230Y-67341169D01*
X124048230Y-67341169D02*
X124143468Y-67293550D01*
X124143468Y-67293550D02*
X124191087Y-67198311D01*
X124191087Y-67198311D02*
X124191087Y-67150692D01*
X124191087Y-67150692D02*
X124143468Y-67055454D01*
X124143468Y-67055454D02*
X124048230Y-67007835D01*
X124048230Y-67007835D02*
X123905373Y-67007835D01*
X123905373Y-67007835D02*
X123810135Y-66960216D01*
X123810135Y-66960216D02*
X123762516Y-66864978D01*
X123762516Y-66864978D02*
X123762516Y-66817359D01*
X123762516Y-66817359D02*
X123810135Y-66722121D01*
X123810135Y-66722121D02*
X123905373Y-66674502D01*
X123905373Y-66674502D02*
X124048230Y-66674502D01*
X124048230Y-66674502D02*
X124143468Y-66722121D01*
X125000611Y-67293550D02*
X124905373Y-67341169D01*
X124905373Y-67341169D02*
X124714897Y-67341169D01*
X124714897Y-67341169D02*
X124619659Y-67293550D01*
X124619659Y-67293550D02*
X124572040Y-67198311D01*
X124572040Y-67198311D02*
X124572040Y-66817359D01*
X124572040Y-66817359D02*
X124619659Y-66722121D01*
X124619659Y-66722121D02*
X124714897Y-66674502D01*
X124714897Y-66674502D02*
X124905373Y-66674502D01*
X124905373Y-66674502D02*
X125000611Y-66722121D01*
X125000611Y-66722121D02*
X125048230Y-66817359D01*
X125048230Y-66817359D02*
X125048230Y-66912597D01*
X125048230Y-66912597D02*
X124572040Y-67007835D01*
D12*
X77613095Y-91005819D02*
X77613095Y-90005819D01*
X77613095Y-90005819D02*
X77946428Y-90720104D01*
X77946428Y-90720104D02*
X78279761Y-90005819D01*
X78279761Y-90005819D02*
X78279761Y-91005819D01*
X78660714Y-90005819D02*
X79327380Y-91005819D01*
X79327380Y-90005819D02*
X78660714Y-91005819D01*
X80232142Y-91005819D02*
X79660714Y-91005819D01*
X79946428Y-91005819D02*
X79946428Y-90005819D01*
X79946428Y-90005819D02*
X79851190Y-90148676D01*
X79851190Y-90148676D02*
X79755952Y-90243914D01*
X79755952Y-90243914D02*
X79660714Y-90291533D01*
X81136904Y-90005819D02*
X80660714Y-90005819D01*
X80660714Y-90005819D02*
X80613095Y-90482009D01*
X80613095Y-90482009D02*
X80660714Y-90434390D01*
X80660714Y-90434390D02*
X80755952Y-90386771D01*
X80755952Y-90386771D02*
X80994047Y-90386771D01*
X80994047Y-90386771D02*
X81089285Y-90434390D01*
X81089285Y-90434390D02*
X81136904Y-90482009D01*
X81136904Y-90482009D02*
X81184523Y-90577247D01*
X81184523Y-90577247D02*
X81184523Y-90815342D01*
X81184523Y-90815342D02*
X81136904Y-90910580D01*
X81136904Y-90910580D02*
X81089285Y-90958200D01*
X81089285Y-90958200D02*
X80994047Y-91005819D01*
X80994047Y-91005819D02*
X80755952Y-91005819D01*
X80755952Y-91005819D02*
X80660714Y-90958200D01*
X80660714Y-90958200D02*
X80613095Y-90910580D01*
X86561069Y-49156844D02*
X85561069Y-49156844D01*
X85561069Y-49156844D02*
X85561069Y-48918749D01*
X85561069Y-48918749D02*
X85608688Y-48775892D01*
X85608688Y-48775892D02*
X85703926Y-48680654D01*
X85703926Y-48680654D02*
X85799164Y-48633035D01*
X85799164Y-48633035D02*
X85989640Y-48585416D01*
X85989640Y-48585416D02*
X86132497Y-48585416D01*
X86132497Y-48585416D02*
X86322973Y-48633035D01*
X86322973Y-48633035D02*
X86418211Y-48680654D01*
X86418211Y-48680654D02*
X86513450Y-48775892D01*
X86513450Y-48775892D02*
X86561069Y-48918749D01*
X86561069Y-48918749D02*
X86561069Y-49156844D01*
X85561069Y-48252082D02*
X85561069Y-47585416D01*
X85561069Y-47585416D02*
X86561069Y-48013987D01*
X39989286Y-71955819D02*
X39989286Y-70955819D01*
X39989286Y-70955819D02*
X40322619Y-71670104D01*
X40322619Y-71670104D02*
X40655952Y-70955819D01*
X40655952Y-70955819D02*
X40655952Y-71955819D01*
X41036905Y-70955819D02*
X41703571Y-71955819D01*
X41703571Y-70955819D02*
X41036905Y-71955819D01*
X42132143Y-71955819D02*
X42322619Y-71955819D01*
X42322619Y-71955819D02*
X42417857Y-71908200D01*
X42417857Y-71908200D02*
X42465476Y-71860580D01*
X42465476Y-71860580D02*
X42560714Y-71717723D01*
X42560714Y-71717723D02*
X42608333Y-71527247D01*
X42608333Y-71527247D02*
X42608333Y-71146295D01*
X42608333Y-71146295D02*
X42560714Y-71051057D01*
X42560714Y-71051057D02*
X42513095Y-71003438D01*
X42513095Y-71003438D02*
X42417857Y-70955819D01*
X42417857Y-70955819D02*
X42227381Y-70955819D01*
X42227381Y-70955819D02*
X42132143Y-71003438D01*
X42132143Y-71003438D02*
X42084524Y-71051057D01*
X42084524Y-71051057D02*
X42036905Y-71146295D01*
X42036905Y-71146295D02*
X42036905Y-71384390D01*
X42036905Y-71384390D02*
X42084524Y-71479628D01*
X42084524Y-71479628D02*
X42132143Y-71527247D01*
X42132143Y-71527247D02*
X42227381Y-71574866D01*
X42227381Y-71574866D02*
X42417857Y-71574866D01*
X42417857Y-71574866D02*
X42513095Y-71527247D01*
X42513095Y-71527247D02*
X42560714Y-71479628D01*
X42560714Y-71479628D02*
X42608333Y-71384390D01*
X78089286Y-33855819D02*
X78089286Y-32855819D01*
X78089286Y-32855819D02*
X78422619Y-33570104D01*
X78422619Y-33570104D02*
X78755952Y-32855819D01*
X78755952Y-32855819D02*
X78755952Y-33855819D01*
X79136905Y-32855819D02*
X79803571Y-33855819D01*
X79803571Y-32855819D02*
X79136905Y-33855819D01*
X80660714Y-32855819D02*
X80184524Y-32855819D01*
X80184524Y-32855819D02*
X80136905Y-33332009D01*
X80136905Y-33332009D02*
X80184524Y-33284390D01*
X80184524Y-33284390D02*
X80279762Y-33236771D01*
X80279762Y-33236771D02*
X80517857Y-33236771D01*
X80517857Y-33236771D02*
X80613095Y-33284390D01*
X80613095Y-33284390D02*
X80660714Y-33332009D01*
X80660714Y-33332009D02*
X80708333Y-33427247D01*
X80708333Y-33427247D02*
X80708333Y-33665342D01*
X80708333Y-33665342D02*
X80660714Y-33760580D01*
X80660714Y-33760580D02*
X80613095Y-33808200D01*
X80613095Y-33808200D02*
X80517857Y-33855819D01*
X80517857Y-33855819D02*
X80279762Y-33855819D01*
X80279762Y-33855819D02*
X80184524Y-33808200D01*
X80184524Y-33808200D02*
X80136905Y-33760580D01*
X69511069Y-83764285D02*
X68511069Y-83764285D01*
X68511069Y-83764285D02*
X68511069Y-83526190D01*
X68511069Y-83526190D02*
X68558688Y-83383333D01*
X68558688Y-83383333D02*
X68653926Y-83288095D01*
X68653926Y-83288095D02*
X68749164Y-83240476D01*
X68749164Y-83240476D02*
X68939640Y-83192857D01*
X68939640Y-83192857D02*
X69082497Y-83192857D01*
X69082497Y-83192857D02*
X69272973Y-83240476D01*
X69272973Y-83240476D02*
X69368211Y-83288095D01*
X69368211Y-83288095D02*
X69463450Y-83383333D01*
X69463450Y-83383333D02*
X69511069Y-83526190D01*
X69511069Y-83526190D02*
X69511069Y-83764285D01*
X69511069Y-82240476D02*
X69511069Y-82811904D01*
X69511069Y-82526190D02*
X68511069Y-82526190D01*
X68511069Y-82526190D02*
X68653926Y-82621428D01*
X68653926Y-82621428D02*
X68749164Y-82716666D01*
X68749164Y-82716666D02*
X68796783Y-82811904D01*
X68606307Y-81859523D02*
X68558688Y-81811904D01*
X68558688Y-81811904D02*
X68511069Y-81716666D01*
X68511069Y-81716666D02*
X68511069Y-81478571D01*
X68511069Y-81478571D02*
X68558688Y-81383333D01*
X68558688Y-81383333D02*
X68606307Y-81335714D01*
X68606307Y-81335714D02*
X68701545Y-81288095D01*
X68701545Y-81288095D02*
X68796783Y-81288095D01*
X68796783Y-81288095D02*
X68939640Y-81335714D01*
X68939640Y-81335714D02*
X69511069Y-81907142D01*
X69511069Y-81907142D02*
X69511069Y-81288095D01*
X107589549Y-102587977D02*
X106589549Y-102587977D01*
X106589549Y-102587977D02*
X106589549Y-102349882D01*
X106589549Y-102349882D02*
X106637168Y-102207025D01*
X106637168Y-102207025D02*
X106732406Y-102111787D01*
X106732406Y-102111787D02*
X106827644Y-102064168D01*
X106827644Y-102064168D02*
X107018120Y-102016549D01*
X107018120Y-102016549D02*
X107160977Y-102016549D01*
X107160977Y-102016549D02*
X107351453Y-102064168D01*
X107351453Y-102064168D02*
X107446691Y-102111787D01*
X107446691Y-102111787D02*
X107541930Y-102207025D01*
X107541930Y-102207025D02*
X107589549Y-102349882D01*
X107589549Y-102349882D02*
X107589549Y-102587977D01*
X107589549Y-101064168D02*
X107589549Y-101635596D01*
X107589549Y-101349882D02*
X106589549Y-101349882D01*
X106589549Y-101349882D02*
X106732406Y-101445120D01*
X106732406Y-101445120D02*
X106827644Y-101540358D01*
X106827644Y-101540358D02*
X106875263Y-101635596D01*
X107018120Y-100492739D02*
X106970501Y-100587977D01*
X106970501Y-100587977D02*
X106922882Y-100635596D01*
X106922882Y-100635596D02*
X106827644Y-100683215D01*
X106827644Y-100683215D02*
X106780025Y-100683215D01*
X106780025Y-100683215D02*
X106684787Y-100635596D01*
X106684787Y-100635596D02*
X106637168Y-100587977D01*
X106637168Y-100587977D02*
X106589549Y-100492739D01*
X106589549Y-100492739D02*
X106589549Y-100302263D01*
X106589549Y-100302263D02*
X106637168Y-100207025D01*
X106637168Y-100207025D02*
X106684787Y-100159406D01*
X106684787Y-100159406D02*
X106780025Y-100111787D01*
X106780025Y-100111787D02*
X106827644Y-100111787D01*
X106827644Y-100111787D02*
X106922882Y-100159406D01*
X106922882Y-100159406D02*
X106970501Y-100207025D01*
X106970501Y-100207025D02*
X107018120Y-100302263D01*
X107018120Y-100302263D02*
X107018120Y-100492739D01*
X107018120Y-100492739D02*
X107065739Y-100587977D01*
X107065739Y-100587977D02*
X107113358Y-100635596D01*
X107113358Y-100635596D02*
X107208596Y-100683215D01*
X107208596Y-100683215D02*
X107399072Y-100683215D01*
X107399072Y-100683215D02*
X107494310Y-100635596D01*
X107494310Y-100635596D02*
X107541930Y-100587977D01*
X107541930Y-100587977D02*
X107589549Y-100492739D01*
X107589549Y-100492739D02*
X107589549Y-100302263D01*
X107589549Y-100302263D02*
X107541930Y-100207025D01*
X107541930Y-100207025D02*
X107494310Y-100159406D01*
X107494310Y-100159406D02*
X107399072Y-100111787D01*
X107399072Y-100111787D02*
X107208596Y-100111787D01*
X107208596Y-100111787D02*
X107113358Y-100159406D01*
X107113358Y-100159406D02*
X107065739Y-100207025D01*
X107065739Y-100207025D02*
X107018120Y-100302263D01*
X47667319Y-68269344D02*
X46667319Y-68269344D01*
X46667319Y-68269344D02*
X46667319Y-68031249D01*
X46667319Y-68031249D02*
X46714938Y-67888392D01*
X46714938Y-67888392D02*
X46810176Y-67793154D01*
X46810176Y-67793154D02*
X46905414Y-67745535D01*
X46905414Y-67745535D02*
X47095890Y-67697916D01*
X47095890Y-67697916D02*
X47238747Y-67697916D01*
X47238747Y-67697916D02*
X47429223Y-67745535D01*
X47429223Y-67745535D02*
X47524461Y-67793154D01*
X47524461Y-67793154D02*
X47619700Y-67888392D01*
X47619700Y-67888392D02*
X47667319Y-68031249D01*
X47667319Y-68031249D02*
X47667319Y-68269344D01*
X46667319Y-67364582D02*
X46667319Y-66745535D01*
X46667319Y-66745535D02*
X47048271Y-67078868D01*
X47048271Y-67078868D02*
X47048271Y-66936011D01*
X47048271Y-66936011D02*
X47095890Y-66840773D01*
X47095890Y-66840773D02*
X47143509Y-66793154D01*
X47143509Y-66793154D02*
X47238747Y-66745535D01*
X47238747Y-66745535D02*
X47476842Y-66745535D01*
X47476842Y-66745535D02*
X47572080Y-66793154D01*
X47572080Y-66793154D02*
X47619700Y-66840773D01*
X47619700Y-66840773D02*
X47667319Y-66936011D01*
X47667319Y-66936011D02*
X47667319Y-67221725D01*
X47667319Y-67221725D02*
X47619700Y-67316963D01*
X47619700Y-67316963D02*
X47572080Y-67364582D01*
X86561069Y-68269344D02*
X85561069Y-68269344D01*
X85561069Y-68269344D02*
X85561069Y-68031249D01*
X85561069Y-68031249D02*
X85608688Y-67888392D01*
X85608688Y-67888392D02*
X85703926Y-67793154D01*
X85703926Y-67793154D02*
X85799164Y-67745535D01*
X85799164Y-67745535D02*
X85989640Y-67697916D01*
X85989640Y-67697916D02*
X86132497Y-67697916D01*
X86132497Y-67697916D02*
X86322973Y-67745535D01*
X86322973Y-67745535D02*
X86418211Y-67793154D01*
X86418211Y-67793154D02*
X86513450Y-67888392D01*
X86513450Y-67888392D02*
X86561069Y-68031249D01*
X86561069Y-68031249D02*
X86561069Y-68269344D01*
X85989640Y-67126487D02*
X85942021Y-67221725D01*
X85942021Y-67221725D02*
X85894402Y-67269344D01*
X85894402Y-67269344D02*
X85799164Y-67316963D01*
X85799164Y-67316963D02*
X85751545Y-67316963D01*
X85751545Y-67316963D02*
X85656307Y-67269344D01*
X85656307Y-67269344D02*
X85608688Y-67221725D01*
X85608688Y-67221725D02*
X85561069Y-67126487D01*
X85561069Y-67126487D02*
X85561069Y-66936011D01*
X85561069Y-66936011D02*
X85608688Y-66840773D01*
X85608688Y-66840773D02*
X85656307Y-66793154D01*
X85656307Y-66793154D02*
X85751545Y-66745535D01*
X85751545Y-66745535D02*
X85799164Y-66745535D01*
X85799164Y-66745535D02*
X85894402Y-66793154D01*
X85894402Y-66793154D02*
X85942021Y-66840773D01*
X85942021Y-66840773D02*
X85989640Y-66936011D01*
X85989640Y-66936011D02*
X85989640Y-67126487D01*
X85989640Y-67126487D02*
X86037259Y-67221725D01*
X86037259Y-67221725D02*
X86084878Y-67269344D01*
X86084878Y-67269344D02*
X86180116Y-67316963D01*
X86180116Y-67316963D02*
X86370592Y-67316963D01*
X86370592Y-67316963D02*
X86465830Y-67269344D01*
X86465830Y-67269344D02*
X86513450Y-67221725D01*
X86513450Y-67221725D02*
X86561069Y-67126487D01*
X86561069Y-67126487D02*
X86561069Y-66936011D01*
X86561069Y-66936011D02*
X86513450Y-66840773D01*
X86513450Y-66840773D02*
X86465830Y-66793154D01*
X86465830Y-66793154D02*
X86370592Y-66745535D01*
X86370592Y-66745535D02*
X86180116Y-66745535D01*
X86180116Y-66745535D02*
X86084878Y-66793154D01*
X86084878Y-66793154D02*
X86037259Y-66840773D01*
X86037259Y-66840773D02*
X85989640Y-66936011D01*
X105086069Y-68745535D02*
X104086069Y-68745535D01*
X104086069Y-68745535D02*
X104086069Y-68507440D01*
X104086069Y-68507440D02*
X104133688Y-68364583D01*
X104133688Y-68364583D02*
X104228926Y-68269345D01*
X104228926Y-68269345D02*
X104324164Y-68221726D01*
X104324164Y-68221726D02*
X104514640Y-68174107D01*
X104514640Y-68174107D02*
X104657497Y-68174107D01*
X104657497Y-68174107D02*
X104847973Y-68221726D01*
X104847973Y-68221726D02*
X104943211Y-68269345D01*
X104943211Y-68269345D02*
X105038450Y-68364583D01*
X105038450Y-68364583D02*
X105086069Y-68507440D01*
X105086069Y-68507440D02*
X105086069Y-68745535D01*
X105086069Y-67221726D02*
X105086069Y-67793154D01*
X105086069Y-67507440D02*
X104086069Y-67507440D01*
X104086069Y-67507440D02*
X104228926Y-67602678D01*
X104228926Y-67602678D02*
X104324164Y-67697916D01*
X104324164Y-67697916D02*
X104371783Y-67793154D01*
X104086069Y-66602678D02*
X104086069Y-66507440D01*
X104086069Y-66507440D02*
X104133688Y-66412202D01*
X104133688Y-66412202D02*
X104181307Y-66364583D01*
X104181307Y-66364583D02*
X104276545Y-66316964D01*
X104276545Y-66316964D02*
X104467021Y-66269345D01*
X104467021Y-66269345D02*
X104705116Y-66269345D01*
X104705116Y-66269345D02*
X104895592Y-66316964D01*
X104895592Y-66316964D02*
X104990830Y-66364583D01*
X104990830Y-66364583D02*
X105038450Y-66412202D01*
X105038450Y-66412202D02*
X105086069Y-66507440D01*
X105086069Y-66507440D02*
X105086069Y-66602678D01*
X105086069Y-66602678D02*
X105038450Y-66697916D01*
X105038450Y-66697916D02*
X104990830Y-66745535D01*
X104990830Y-66745535D02*
X104895592Y-66793154D01*
X104895592Y-66793154D02*
X104705116Y-66840773D01*
X104705116Y-66840773D02*
X104467021Y-66840773D01*
X104467021Y-66840773D02*
X104276545Y-66793154D01*
X104276545Y-66793154D02*
X104181307Y-66745535D01*
X104181307Y-66745535D02*
X104133688Y-66697916D01*
X104133688Y-66697916D02*
X104086069Y-66602678D01*
X78089286Y-52905819D02*
X78089286Y-51905819D01*
X78089286Y-51905819D02*
X78422619Y-52620104D01*
X78422619Y-52620104D02*
X78755952Y-51905819D01*
X78755952Y-51905819D02*
X78755952Y-52905819D01*
X79136905Y-51905819D02*
X79803571Y-52905819D01*
X79803571Y-51905819D02*
X79136905Y-52905819D01*
X80613095Y-51905819D02*
X80422619Y-51905819D01*
X80422619Y-51905819D02*
X80327381Y-51953438D01*
X80327381Y-51953438D02*
X80279762Y-52001057D01*
X80279762Y-52001057D02*
X80184524Y-52143914D01*
X80184524Y-52143914D02*
X80136905Y-52334390D01*
X80136905Y-52334390D02*
X80136905Y-52715342D01*
X80136905Y-52715342D02*
X80184524Y-52810580D01*
X80184524Y-52810580D02*
X80232143Y-52858200D01*
X80232143Y-52858200D02*
X80327381Y-52905819D01*
X80327381Y-52905819D02*
X80517857Y-52905819D01*
X80517857Y-52905819D02*
X80613095Y-52858200D01*
X80613095Y-52858200D02*
X80660714Y-52810580D01*
X80660714Y-52810580D02*
X80708333Y-52715342D01*
X80708333Y-52715342D02*
X80708333Y-52477247D01*
X80708333Y-52477247D02*
X80660714Y-52382009D01*
X80660714Y-52382009D02*
X80613095Y-52334390D01*
X80613095Y-52334390D02*
X80517857Y-52286771D01*
X80517857Y-52286771D02*
X80327381Y-52286771D01*
X80327381Y-52286771D02*
X80232143Y-52334390D01*
X80232143Y-52334390D02*
X80184524Y-52382009D01*
X80184524Y-52382009D02*
X80136905Y-52477247D01*
X39989286Y-52905819D02*
X39989286Y-51905819D01*
X39989286Y-51905819D02*
X40322619Y-52620104D01*
X40322619Y-52620104D02*
X40655952Y-51905819D01*
X40655952Y-51905819D02*
X40655952Y-52905819D01*
X41036905Y-51905819D02*
X41703571Y-52905819D01*
X41703571Y-51905819D02*
X41036905Y-52905819D01*
X41989286Y-51905819D02*
X42608333Y-51905819D01*
X42608333Y-51905819D02*
X42275000Y-52286771D01*
X42275000Y-52286771D02*
X42417857Y-52286771D01*
X42417857Y-52286771D02*
X42513095Y-52334390D01*
X42513095Y-52334390D02*
X42560714Y-52382009D01*
X42560714Y-52382009D02*
X42608333Y-52477247D01*
X42608333Y-52477247D02*
X42608333Y-52715342D01*
X42608333Y-52715342D02*
X42560714Y-52810580D01*
X42560714Y-52810580D02*
X42513095Y-52858200D01*
X42513095Y-52858200D02*
X42417857Y-52905819D01*
X42417857Y-52905819D02*
X42132143Y-52905819D01*
X42132143Y-52905819D02*
X42036905Y-52858200D01*
X42036905Y-52858200D02*
X41989286Y-52810580D01*
X39989286Y-33855819D02*
X39989286Y-32855819D01*
X39989286Y-32855819D02*
X40322619Y-33570104D01*
X40322619Y-33570104D02*
X40655952Y-32855819D01*
X40655952Y-32855819D02*
X40655952Y-33855819D01*
X41036905Y-32855819D02*
X41703571Y-33855819D01*
X41703571Y-32855819D02*
X41036905Y-33855819D01*
X42608333Y-33855819D02*
X42036905Y-33855819D01*
X42322619Y-33855819D02*
X42322619Y-32855819D01*
X42322619Y-32855819D02*
X42227381Y-32998676D01*
X42227381Y-32998676D02*
X42132143Y-33093914D01*
X42132143Y-33093914D02*
X42036905Y-33141533D01*
X50461069Y-83764285D02*
X49461069Y-83764285D01*
X49461069Y-83764285D02*
X49461069Y-83526190D01*
X49461069Y-83526190D02*
X49508688Y-83383333D01*
X49508688Y-83383333D02*
X49603926Y-83288095D01*
X49603926Y-83288095D02*
X49699164Y-83240476D01*
X49699164Y-83240476D02*
X49889640Y-83192857D01*
X49889640Y-83192857D02*
X50032497Y-83192857D01*
X50032497Y-83192857D02*
X50222973Y-83240476D01*
X50222973Y-83240476D02*
X50318211Y-83288095D01*
X50318211Y-83288095D02*
X50413450Y-83383333D01*
X50413450Y-83383333D02*
X50461069Y-83526190D01*
X50461069Y-83526190D02*
X50461069Y-83764285D01*
X50461069Y-82240476D02*
X50461069Y-82811904D01*
X50461069Y-82526190D02*
X49461069Y-82526190D01*
X49461069Y-82526190D02*
X49603926Y-82621428D01*
X49603926Y-82621428D02*
X49699164Y-82716666D01*
X49699164Y-82716666D02*
X49746783Y-82811904D01*
X50461069Y-81288095D02*
X50461069Y-81859523D01*
X50461069Y-81573809D02*
X49461069Y-81573809D01*
X49461069Y-81573809D02*
X49603926Y-81669047D01*
X49603926Y-81669047D02*
X49699164Y-81764285D01*
X49699164Y-81764285D02*
X49746783Y-81859523D01*
X58880536Y-52905819D02*
X58880536Y-51905819D01*
X58880536Y-51905819D02*
X59213869Y-52620104D01*
X59213869Y-52620104D02*
X59547202Y-51905819D01*
X59547202Y-51905819D02*
X59547202Y-52905819D01*
X59928155Y-51905819D02*
X60594821Y-52905819D01*
X60594821Y-51905819D02*
X59928155Y-52905819D01*
X61404345Y-52239152D02*
X61404345Y-52905819D01*
X61166250Y-51858200D02*
X60928155Y-52572485D01*
X60928155Y-52572485D02*
X61547202Y-52572485D01*
X59039286Y-33855819D02*
X59039286Y-32855819D01*
X59039286Y-32855819D02*
X59372619Y-33570104D01*
X59372619Y-33570104D02*
X59705952Y-32855819D01*
X59705952Y-32855819D02*
X59705952Y-33855819D01*
X60086905Y-32855819D02*
X60753571Y-33855819D01*
X60753571Y-32855819D02*
X60086905Y-33855819D01*
X61086905Y-32951057D02*
X61134524Y-32903438D01*
X61134524Y-32903438D02*
X61229762Y-32855819D01*
X61229762Y-32855819D02*
X61467857Y-32855819D01*
X61467857Y-32855819D02*
X61563095Y-32903438D01*
X61563095Y-32903438D02*
X61610714Y-32951057D01*
X61610714Y-32951057D02*
X61658333Y-33046295D01*
X61658333Y-33046295D02*
X61658333Y-33141533D01*
X61658333Y-33141533D02*
X61610714Y-33284390D01*
X61610714Y-33284390D02*
X61039286Y-33855819D01*
X61039286Y-33855819D02*
X61658333Y-33855819D01*
X58563095Y-91005819D02*
X58563095Y-90005819D01*
X58563095Y-90005819D02*
X58896428Y-90720104D01*
X58896428Y-90720104D02*
X59229761Y-90005819D01*
X59229761Y-90005819D02*
X59229761Y-91005819D01*
X59610714Y-90005819D02*
X60277380Y-91005819D01*
X60277380Y-90005819D02*
X59610714Y-91005819D01*
X61182142Y-91005819D02*
X60610714Y-91005819D01*
X60896428Y-91005819D02*
X60896428Y-90005819D01*
X60896428Y-90005819D02*
X60801190Y-90148676D01*
X60801190Y-90148676D02*
X60705952Y-90243914D01*
X60705952Y-90243914D02*
X60610714Y-90291533D01*
X62039285Y-90339152D02*
X62039285Y-91005819D01*
X61801190Y-89958200D02*
X61563095Y-90672485D01*
X61563095Y-90672485D02*
X62182142Y-90672485D01*
X77613095Y-71955819D02*
X77613095Y-70955819D01*
X77613095Y-70955819D02*
X77946428Y-71670104D01*
X77946428Y-71670104D02*
X78279761Y-70955819D01*
X78279761Y-70955819D02*
X78279761Y-71955819D01*
X78660714Y-70955819D02*
X79327380Y-71955819D01*
X79327380Y-70955819D02*
X78660714Y-71955819D01*
X80232142Y-71955819D02*
X79660714Y-71955819D01*
X79946428Y-71955819D02*
X79946428Y-70955819D01*
X79946428Y-70955819D02*
X79851190Y-71098676D01*
X79851190Y-71098676D02*
X79755952Y-71193914D01*
X79755952Y-71193914D02*
X79660714Y-71241533D01*
X81184523Y-71955819D02*
X80613095Y-71955819D01*
X80898809Y-71955819D02*
X80898809Y-70955819D01*
X80898809Y-70955819D02*
X80803571Y-71098676D01*
X80803571Y-71098676D02*
X80708333Y-71193914D01*
X80708333Y-71193914D02*
X80613095Y-71241533D01*
X47667319Y-49156844D02*
X46667319Y-49156844D01*
X46667319Y-49156844D02*
X46667319Y-48918749D01*
X46667319Y-48918749D02*
X46714938Y-48775892D01*
X46714938Y-48775892D02*
X46810176Y-48680654D01*
X46810176Y-48680654D02*
X46905414Y-48633035D01*
X46905414Y-48633035D02*
X47095890Y-48585416D01*
X47095890Y-48585416D02*
X47238747Y-48585416D01*
X47238747Y-48585416D02*
X47429223Y-48633035D01*
X47429223Y-48633035D02*
X47524461Y-48680654D01*
X47524461Y-48680654D02*
X47619700Y-48775892D01*
X47619700Y-48775892D02*
X47667319Y-48918749D01*
X47667319Y-48918749D02*
X47667319Y-49156844D01*
X47667319Y-47633035D02*
X47667319Y-48204463D01*
X47667319Y-47918749D02*
X46667319Y-47918749D01*
X46667319Y-47918749D02*
X46810176Y-48013987D01*
X46810176Y-48013987D02*
X46905414Y-48109225D01*
X46905414Y-48109225D02*
X46953033Y-48204463D01*
X96663095Y-71955819D02*
X96663095Y-70955819D01*
X96663095Y-70955819D02*
X96996428Y-71670104D01*
X96996428Y-71670104D02*
X97329761Y-70955819D01*
X97329761Y-70955819D02*
X97329761Y-71955819D01*
X97710714Y-70955819D02*
X98377380Y-71955819D01*
X98377380Y-70955819D02*
X97710714Y-71955819D01*
X99282142Y-71955819D02*
X98710714Y-71955819D01*
X98996428Y-71955819D02*
X98996428Y-70955819D01*
X98996428Y-70955819D02*
X98901190Y-71098676D01*
X98901190Y-71098676D02*
X98805952Y-71193914D01*
X98805952Y-71193914D02*
X98710714Y-71241533D01*
X99663095Y-71051057D02*
X99710714Y-71003438D01*
X99710714Y-71003438D02*
X99805952Y-70955819D01*
X99805952Y-70955819D02*
X100044047Y-70955819D01*
X100044047Y-70955819D02*
X100139285Y-71003438D01*
X100139285Y-71003438D02*
X100186904Y-71051057D01*
X100186904Y-71051057D02*
X100234523Y-71146295D01*
X100234523Y-71146295D02*
X100234523Y-71241533D01*
X100234523Y-71241533D02*
X100186904Y-71384390D01*
X100186904Y-71384390D02*
X99615476Y-71955819D01*
X99615476Y-71955819D02*
X100234523Y-71955819D01*
X97139286Y-52905819D02*
X97139286Y-51905819D01*
X97139286Y-51905819D02*
X97472619Y-52620104D01*
X97472619Y-52620104D02*
X97805952Y-51905819D01*
X97805952Y-51905819D02*
X97805952Y-52905819D01*
X98186905Y-51905819D02*
X98853571Y-52905819D01*
X98853571Y-51905819D02*
X98186905Y-52905819D01*
X99377381Y-52334390D02*
X99282143Y-52286771D01*
X99282143Y-52286771D02*
X99234524Y-52239152D01*
X99234524Y-52239152D02*
X99186905Y-52143914D01*
X99186905Y-52143914D02*
X99186905Y-52096295D01*
X99186905Y-52096295D02*
X99234524Y-52001057D01*
X99234524Y-52001057D02*
X99282143Y-51953438D01*
X99282143Y-51953438D02*
X99377381Y-51905819D01*
X99377381Y-51905819D02*
X99567857Y-51905819D01*
X99567857Y-51905819D02*
X99663095Y-51953438D01*
X99663095Y-51953438D02*
X99710714Y-52001057D01*
X99710714Y-52001057D02*
X99758333Y-52096295D01*
X99758333Y-52096295D02*
X99758333Y-52143914D01*
X99758333Y-52143914D02*
X99710714Y-52239152D01*
X99710714Y-52239152D02*
X99663095Y-52286771D01*
X99663095Y-52286771D02*
X99567857Y-52334390D01*
X99567857Y-52334390D02*
X99377381Y-52334390D01*
X99377381Y-52334390D02*
X99282143Y-52382009D01*
X99282143Y-52382009D02*
X99234524Y-52429628D01*
X99234524Y-52429628D02*
X99186905Y-52524866D01*
X99186905Y-52524866D02*
X99186905Y-52715342D01*
X99186905Y-52715342D02*
X99234524Y-52810580D01*
X99234524Y-52810580D02*
X99282143Y-52858200D01*
X99282143Y-52858200D02*
X99377381Y-52905819D01*
X99377381Y-52905819D02*
X99567857Y-52905819D01*
X99567857Y-52905819D02*
X99663095Y-52858200D01*
X99663095Y-52858200D02*
X99710714Y-52810580D01*
X99710714Y-52810580D02*
X99758333Y-52715342D01*
X99758333Y-52715342D02*
X99758333Y-52524866D01*
X99758333Y-52524866D02*
X99710714Y-52429628D01*
X99710714Y-52429628D02*
X99663095Y-52382009D01*
X99663095Y-52382009D02*
X99567857Y-52334390D01*
X66717319Y-49156844D02*
X65717319Y-49156844D01*
X65717319Y-49156844D02*
X65717319Y-48918749D01*
X65717319Y-48918749D02*
X65764938Y-48775892D01*
X65764938Y-48775892D02*
X65860176Y-48680654D01*
X65860176Y-48680654D02*
X65955414Y-48633035D01*
X65955414Y-48633035D02*
X66145890Y-48585416D01*
X66145890Y-48585416D02*
X66288747Y-48585416D01*
X66288747Y-48585416D02*
X66479223Y-48633035D01*
X66479223Y-48633035D02*
X66574461Y-48680654D01*
X66574461Y-48680654D02*
X66669700Y-48775892D01*
X66669700Y-48775892D02*
X66717319Y-48918749D01*
X66717319Y-48918749D02*
X66717319Y-49156844D01*
X65812557Y-48204463D02*
X65764938Y-48156844D01*
X65764938Y-48156844D02*
X65717319Y-48061606D01*
X65717319Y-48061606D02*
X65717319Y-47823511D01*
X65717319Y-47823511D02*
X65764938Y-47728273D01*
X65764938Y-47728273D02*
X65812557Y-47680654D01*
X65812557Y-47680654D02*
X65907795Y-47633035D01*
X65907795Y-47633035D02*
X66003033Y-47633035D01*
X66003033Y-47633035D02*
X66145890Y-47680654D01*
X66145890Y-47680654D02*
X66717319Y-48252082D01*
X66717319Y-48252082D02*
X66717319Y-47633035D01*
X49667319Y-95670535D02*
X48667319Y-95670535D01*
X48667319Y-95670535D02*
X48667319Y-95432440D01*
X48667319Y-95432440D02*
X48714938Y-95289583D01*
X48714938Y-95289583D02*
X48810176Y-95194345D01*
X48810176Y-95194345D02*
X48905414Y-95146726D01*
X48905414Y-95146726D02*
X49095890Y-95099107D01*
X49095890Y-95099107D02*
X49238747Y-95099107D01*
X49238747Y-95099107D02*
X49429223Y-95146726D01*
X49429223Y-95146726D02*
X49524461Y-95194345D01*
X49524461Y-95194345D02*
X49619700Y-95289583D01*
X49619700Y-95289583D02*
X49667319Y-95432440D01*
X49667319Y-95432440D02*
X49667319Y-95670535D01*
X49667319Y-94146726D02*
X49667319Y-94718154D01*
X49667319Y-94432440D02*
X48667319Y-94432440D01*
X48667319Y-94432440D02*
X48810176Y-94527678D01*
X48810176Y-94527678D02*
X48905414Y-94622916D01*
X48905414Y-94622916D02*
X48953033Y-94718154D01*
X48667319Y-93241964D02*
X48667319Y-93718154D01*
X48667319Y-93718154D02*
X49143509Y-93765773D01*
X49143509Y-93765773D02*
X49095890Y-93718154D01*
X49095890Y-93718154D02*
X49048271Y-93622916D01*
X49048271Y-93622916D02*
X49048271Y-93384821D01*
X49048271Y-93384821D02*
X49095890Y-93289583D01*
X49095890Y-93289583D02*
X49143509Y-93241964D01*
X49143509Y-93241964D02*
X49238747Y-93194345D01*
X49238747Y-93194345D02*
X49476842Y-93194345D01*
X49476842Y-93194345D02*
X49572080Y-93241964D01*
X49572080Y-93241964D02*
X49619700Y-93289583D01*
X49619700Y-93289583D02*
X49667319Y-93384821D01*
X49667319Y-93384821D02*
X49667319Y-93622916D01*
X49667319Y-93622916D02*
X49619700Y-93718154D01*
X49619700Y-93718154D02*
X49572080Y-93765773D01*
X88561069Y-83764285D02*
X87561069Y-83764285D01*
X87561069Y-83764285D02*
X87561069Y-83526190D01*
X87561069Y-83526190D02*
X87608688Y-83383333D01*
X87608688Y-83383333D02*
X87703926Y-83288095D01*
X87703926Y-83288095D02*
X87799164Y-83240476D01*
X87799164Y-83240476D02*
X87989640Y-83192857D01*
X87989640Y-83192857D02*
X88132497Y-83192857D01*
X88132497Y-83192857D02*
X88322973Y-83240476D01*
X88322973Y-83240476D02*
X88418211Y-83288095D01*
X88418211Y-83288095D02*
X88513450Y-83383333D01*
X88513450Y-83383333D02*
X88561069Y-83526190D01*
X88561069Y-83526190D02*
X88561069Y-83764285D01*
X88561069Y-82240476D02*
X88561069Y-82811904D01*
X88561069Y-82526190D02*
X87561069Y-82526190D01*
X87561069Y-82526190D02*
X87703926Y-82621428D01*
X87703926Y-82621428D02*
X87799164Y-82716666D01*
X87799164Y-82716666D02*
X87846783Y-82811904D01*
X87561069Y-81907142D02*
X87561069Y-81288095D01*
X87561069Y-81288095D02*
X87942021Y-81621428D01*
X87942021Y-81621428D02*
X87942021Y-81478571D01*
X87942021Y-81478571D02*
X87989640Y-81383333D01*
X87989640Y-81383333D02*
X88037259Y-81335714D01*
X88037259Y-81335714D02*
X88132497Y-81288095D01*
X88132497Y-81288095D02*
X88370592Y-81288095D01*
X88370592Y-81288095D02*
X88465830Y-81335714D01*
X88465830Y-81335714D02*
X88513450Y-81383333D01*
X88513450Y-81383333D02*
X88561069Y-81478571D01*
X88561069Y-81478571D02*
X88561069Y-81764285D01*
X88561069Y-81764285D02*
X88513450Y-81859523D01*
X88513450Y-81859523D02*
X88465830Y-81907142D01*
X66717319Y-68269344D02*
X65717319Y-68269344D01*
X65717319Y-68269344D02*
X65717319Y-68031249D01*
X65717319Y-68031249D02*
X65764938Y-67888392D01*
X65764938Y-67888392D02*
X65860176Y-67793154D01*
X65860176Y-67793154D02*
X65955414Y-67745535D01*
X65955414Y-67745535D02*
X66145890Y-67697916D01*
X66145890Y-67697916D02*
X66288747Y-67697916D01*
X66288747Y-67697916D02*
X66479223Y-67745535D01*
X66479223Y-67745535D02*
X66574461Y-67793154D01*
X66574461Y-67793154D02*
X66669700Y-67888392D01*
X66669700Y-67888392D02*
X66717319Y-68031249D01*
X66717319Y-68031249D02*
X66717319Y-68269344D01*
X66050652Y-66840773D02*
X66717319Y-66840773D01*
X65669700Y-67078868D02*
X66383985Y-67316963D01*
X66383985Y-67316963D02*
X66383985Y-66697916D01*
X88561069Y-98051785D02*
X87561069Y-98051785D01*
X87561069Y-98051785D02*
X87561069Y-97813690D01*
X87561069Y-97813690D02*
X87608688Y-97670833D01*
X87608688Y-97670833D02*
X87703926Y-97575595D01*
X87703926Y-97575595D02*
X87799164Y-97527976D01*
X87799164Y-97527976D02*
X87989640Y-97480357D01*
X87989640Y-97480357D02*
X88132497Y-97480357D01*
X88132497Y-97480357D02*
X88322973Y-97527976D01*
X88322973Y-97527976D02*
X88418211Y-97575595D01*
X88418211Y-97575595D02*
X88513450Y-97670833D01*
X88513450Y-97670833D02*
X88561069Y-97813690D01*
X88561069Y-97813690D02*
X88561069Y-98051785D01*
X88561069Y-96527976D02*
X88561069Y-97099404D01*
X88561069Y-96813690D02*
X87561069Y-96813690D01*
X87561069Y-96813690D02*
X87703926Y-96908928D01*
X87703926Y-96908928D02*
X87799164Y-97004166D01*
X87799164Y-97004166D02*
X87846783Y-97099404D01*
X87561069Y-96194642D02*
X87561069Y-95527976D01*
X87561069Y-95527976D02*
X88561069Y-95956547D01*
X106817319Y-83764285D02*
X105817319Y-83764285D01*
X105817319Y-83764285D02*
X105817319Y-83526190D01*
X105817319Y-83526190D02*
X105864938Y-83383333D01*
X105864938Y-83383333D02*
X105960176Y-83288095D01*
X105960176Y-83288095D02*
X106055414Y-83240476D01*
X106055414Y-83240476D02*
X106245890Y-83192857D01*
X106245890Y-83192857D02*
X106388747Y-83192857D01*
X106388747Y-83192857D02*
X106579223Y-83240476D01*
X106579223Y-83240476D02*
X106674461Y-83288095D01*
X106674461Y-83288095D02*
X106769700Y-83383333D01*
X106769700Y-83383333D02*
X106817319Y-83526190D01*
X106817319Y-83526190D02*
X106817319Y-83764285D01*
X106817319Y-82240476D02*
X106817319Y-82811904D01*
X106817319Y-82526190D02*
X105817319Y-82526190D01*
X105817319Y-82526190D02*
X105960176Y-82621428D01*
X105960176Y-82621428D02*
X106055414Y-82716666D01*
X106055414Y-82716666D02*
X106103033Y-82811904D01*
X106150652Y-81383333D02*
X106817319Y-81383333D01*
X105769700Y-81621428D02*
X106483985Y-81859523D01*
X106483985Y-81859523D02*
X106483985Y-81240476D01*
X39513095Y-91005819D02*
X39513095Y-90005819D01*
X39513095Y-90005819D02*
X39846428Y-90720104D01*
X39846428Y-90720104D02*
X40179761Y-90005819D01*
X40179761Y-90005819D02*
X40179761Y-91005819D01*
X40560714Y-90005819D02*
X41227380Y-91005819D01*
X41227380Y-90005819D02*
X40560714Y-91005819D01*
X42132142Y-91005819D02*
X41560714Y-91005819D01*
X41846428Y-91005819D02*
X41846428Y-90005819D01*
X41846428Y-90005819D02*
X41751190Y-90148676D01*
X41751190Y-90148676D02*
X41655952Y-90243914D01*
X41655952Y-90243914D02*
X41560714Y-90291533D01*
X42465476Y-90005819D02*
X43084523Y-90005819D01*
X43084523Y-90005819D02*
X42751190Y-90386771D01*
X42751190Y-90386771D02*
X42894047Y-90386771D01*
X42894047Y-90386771D02*
X42989285Y-90434390D01*
X42989285Y-90434390D02*
X43036904Y-90482009D01*
X43036904Y-90482009D02*
X43084523Y-90577247D01*
X43084523Y-90577247D02*
X43084523Y-90815342D01*
X43084523Y-90815342D02*
X43036904Y-90910580D01*
X43036904Y-90910580D02*
X42989285Y-90958200D01*
X42989285Y-90958200D02*
X42894047Y-91005819D01*
X42894047Y-91005819D02*
X42608333Y-91005819D01*
X42608333Y-91005819D02*
X42513095Y-90958200D01*
X42513095Y-90958200D02*
X42465476Y-90910580D01*
X96663095Y-91005819D02*
X96663095Y-90005819D01*
X96663095Y-90005819D02*
X96996428Y-90720104D01*
X96996428Y-90720104D02*
X97329761Y-90005819D01*
X97329761Y-90005819D02*
X97329761Y-91005819D01*
X97710714Y-90005819D02*
X98377380Y-91005819D01*
X98377380Y-90005819D02*
X97710714Y-91005819D01*
X99282142Y-91005819D02*
X98710714Y-91005819D01*
X98996428Y-91005819D02*
X98996428Y-90005819D01*
X98996428Y-90005819D02*
X98901190Y-90148676D01*
X98901190Y-90148676D02*
X98805952Y-90243914D01*
X98805952Y-90243914D02*
X98710714Y-90291533D01*
X100139285Y-90005819D02*
X99948809Y-90005819D01*
X99948809Y-90005819D02*
X99853571Y-90053438D01*
X99853571Y-90053438D02*
X99805952Y-90101057D01*
X99805952Y-90101057D02*
X99710714Y-90243914D01*
X99710714Y-90243914D02*
X99663095Y-90434390D01*
X99663095Y-90434390D02*
X99663095Y-90815342D01*
X99663095Y-90815342D02*
X99710714Y-90910580D01*
X99710714Y-90910580D02*
X99758333Y-90958200D01*
X99758333Y-90958200D02*
X99853571Y-91005819D01*
X99853571Y-91005819D02*
X100044047Y-91005819D01*
X100044047Y-91005819D02*
X100139285Y-90958200D01*
X100139285Y-90958200D02*
X100186904Y-90910580D01*
X100186904Y-90910580D02*
X100234523Y-90815342D01*
X100234523Y-90815342D02*
X100234523Y-90577247D01*
X100234523Y-90577247D02*
X100186904Y-90482009D01*
X100186904Y-90482009D02*
X100139285Y-90434390D01*
X100139285Y-90434390D02*
X100044047Y-90386771D01*
X100044047Y-90386771D02*
X99853571Y-90386771D01*
X99853571Y-90386771D02*
X99758333Y-90434390D01*
X99758333Y-90434390D02*
X99710714Y-90482009D01*
X99710714Y-90482009D02*
X99663095Y-90577247D01*
X58563095Y-71955819D02*
X58563095Y-70955819D01*
X58563095Y-70955819D02*
X58896428Y-71670104D01*
X58896428Y-71670104D02*
X59229761Y-70955819D01*
X59229761Y-70955819D02*
X59229761Y-71955819D01*
X59610714Y-70955819D02*
X60277380Y-71955819D01*
X60277380Y-70955819D02*
X59610714Y-71955819D01*
X61182142Y-71955819D02*
X60610714Y-71955819D01*
X60896428Y-71955819D02*
X60896428Y-70955819D01*
X60896428Y-70955819D02*
X60801190Y-71098676D01*
X60801190Y-71098676D02*
X60705952Y-71193914D01*
X60705952Y-71193914D02*
X60610714Y-71241533D01*
X61801190Y-70955819D02*
X61896428Y-70955819D01*
X61896428Y-70955819D02*
X61991666Y-71003438D01*
X61991666Y-71003438D02*
X62039285Y-71051057D01*
X62039285Y-71051057D02*
X62086904Y-71146295D01*
X62086904Y-71146295D02*
X62134523Y-71336771D01*
X62134523Y-71336771D02*
X62134523Y-71574866D01*
X62134523Y-71574866D02*
X62086904Y-71765342D01*
X62086904Y-71765342D02*
X62039285Y-71860580D01*
X62039285Y-71860580D02*
X61991666Y-71908200D01*
X61991666Y-71908200D02*
X61896428Y-71955819D01*
X61896428Y-71955819D02*
X61801190Y-71955819D01*
X61801190Y-71955819D02*
X61705952Y-71908200D01*
X61705952Y-71908200D02*
X61658333Y-71860580D01*
X61658333Y-71860580D02*
X61610714Y-71765342D01*
X61610714Y-71765342D02*
X61563095Y-71574866D01*
X61563095Y-71574866D02*
X61563095Y-71336771D01*
X61563095Y-71336771D02*
X61610714Y-71146295D01*
X61610714Y-71146295D02*
X61658333Y-71051057D01*
X61658333Y-71051057D02*
X61705952Y-71003438D01*
X61705952Y-71003438D02*
X61801190Y-70955819D01*
X69511069Y-96464285D02*
X68511069Y-96464285D01*
X68511069Y-96464285D02*
X68511069Y-96226190D01*
X68511069Y-96226190D02*
X68558688Y-96083333D01*
X68558688Y-96083333D02*
X68653926Y-95988095D01*
X68653926Y-95988095D02*
X68749164Y-95940476D01*
X68749164Y-95940476D02*
X68939640Y-95892857D01*
X68939640Y-95892857D02*
X69082497Y-95892857D01*
X69082497Y-95892857D02*
X69272973Y-95940476D01*
X69272973Y-95940476D02*
X69368211Y-95988095D01*
X69368211Y-95988095D02*
X69463450Y-96083333D01*
X69463450Y-96083333D02*
X69511069Y-96226190D01*
X69511069Y-96226190D02*
X69511069Y-96464285D01*
X69511069Y-94940476D02*
X69511069Y-95511904D01*
X69511069Y-95226190D02*
X68511069Y-95226190D01*
X68511069Y-95226190D02*
X68653926Y-95321428D01*
X68653926Y-95321428D02*
X68749164Y-95416666D01*
X68749164Y-95416666D02*
X68796783Y-95511904D01*
X68511069Y-94083333D02*
X68511069Y-94273809D01*
X68511069Y-94273809D02*
X68558688Y-94369047D01*
X68558688Y-94369047D02*
X68606307Y-94416666D01*
X68606307Y-94416666D02*
X68749164Y-94511904D01*
X68749164Y-94511904D02*
X68939640Y-94559523D01*
X68939640Y-94559523D02*
X69320592Y-94559523D01*
X69320592Y-94559523D02*
X69415830Y-94511904D01*
X69415830Y-94511904D02*
X69463450Y-94464285D01*
X69463450Y-94464285D02*
X69511069Y-94369047D01*
X69511069Y-94369047D02*
X69511069Y-94178571D01*
X69511069Y-94178571D02*
X69463450Y-94083333D01*
X69463450Y-94083333D02*
X69415830Y-94035714D01*
X69415830Y-94035714D02*
X69320592Y-93988095D01*
X69320592Y-93988095D02*
X69082497Y-93988095D01*
X69082497Y-93988095D02*
X68987259Y-94035714D01*
X68987259Y-94035714D02*
X68939640Y-94083333D01*
X68939640Y-94083333D02*
X68892021Y-94178571D01*
X68892021Y-94178571D02*
X68892021Y-94369047D01*
X68892021Y-94369047D02*
X68939640Y-94464285D01*
X68939640Y-94464285D02*
X68987259Y-94511904D01*
X68987259Y-94511904D02*
X69082497Y-94559523D01*
D13*
%TO.C,MX15*%
X72390000Y-91440000D02*
X86360000Y-91440000D01*
X72390000Y-105410000D02*
X72390000Y-91440000D01*
X86360000Y-91440000D02*
X86360000Y-105410000D01*
X86360000Y-105410000D02*
X72390000Y-105410000D01*
%TO.C,D7*%
X87106250Y-50778750D02*
X87106250Y-46768750D01*
X87106250Y-50778750D02*
X89106250Y-50778750D01*
X89106250Y-50778750D02*
X89106250Y-46768750D01*
%TO.C,MX9*%
X34290000Y-72390000D02*
X48260000Y-72390000D01*
X34290000Y-86360000D02*
X34290000Y-72390000D01*
X48260000Y-72390000D02*
X48260000Y-86360000D01*
X48260000Y-86360000D02*
X34290000Y-86360000D01*
%TO.C,MX5*%
X72390000Y-34290000D02*
X86360000Y-34290000D01*
X72390000Y-48260000D02*
X72390000Y-34290000D01*
X86360000Y-34290000D02*
X86360000Y-48260000D01*
X86360000Y-48260000D02*
X72390000Y-48260000D01*
%TO.C,D12*%
X68056250Y-88878750D02*
X68056250Y-84868750D01*
X68056250Y-88878750D02*
X70056250Y-88878750D01*
X70056250Y-88878750D02*
X70056250Y-84868750D01*
%TO.C,D18*%
X106134730Y-107702442D02*
X106134730Y-103692442D01*
X106134730Y-107702442D02*
X108134730Y-107702442D01*
X108134730Y-107702442D02*
X108134730Y-103692442D01*
%TO.C,D3*%
X48212500Y-69891250D02*
X48212500Y-65881250D01*
X48212500Y-69891250D02*
X50212500Y-69891250D01*
X50212500Y-69891250D02*
X50212500Y-65881250D01*
%TO.C,D8*%
X87106250Y-69891250D02*
X87106250Y-65881250D01*
X87106250Y-69891250D02*
X89106250Y-69891250D01*
X89106250Y-69891250D02*
X89106250Y-65881250D01*
%TO.C,D10*%
X105631250Y-69891250D02*
X105631250Y-65881250D01*
X105631250Y-69891250D02*
X107631250Y-69891250D01*
X107631250Y-69891250D02*
X107631250Y-65881250D01*
%TO.C,MX6*%
X72390000Y-53340000D02*
X86360000Y-53340000D01*
X72390000Y-67310000D02*
X72390000Y-53340000D01*
X86360000Y-53340000D02*
X86360000Y-67310000D01*
X86360000Y-67310000D02*
X72390000Y-67310000D01*
%TO.C,MX3*%
X34290000Y-53340000D02*
X48260000Y-53340000D01*
X34290000Y-67310000D02*
X34290000Y-53340000D01*
X48260000Y-53340000D02*
X48260000Y-67310000D01*
X48260000Y-67310000D02*
X34290000Y-67310000D01*
%TO.C,MX1*%
X34290000Y-34290000D02*
X48260000Y-34290000D01*
X34290000Y-48260000D02*
X34290000Y-34290000D01*
X48260000Y-34290000D02*
X48260000Y-48260000D01*
X48260000Y-48260000D02*
X34290000Y-48260000D01*
%TO.C,D11*%
X49006250Y-88878750D02*
X49006250Y-84868750D01*
X49006250Y-88878750D02*
X51006250Y-88878750D01*
X51006250Y-88878750D02*
X51006250Y-84868750D01*
%TO.C,MX4*%
X53181250Y-53340000D02*
X67151250Y-53340000D01*
X53181250Y-67310000D02*
X53181250Y-53340000D01*
X67151250Y-53340000D02*
X67151250Y-67310000D01*
X67151250Y-67310000D02*
X53181250Y-67310000D01*
%TO.C,MX2*%
X53340000Y-34290000D02*
X67310000Y-34290000D01*
X53340000Y-48260000D02*
X53340000Y-34290000D01*
X67310000Y-34290000D02*
X67310000Y-48260000D01*
X67310000Y-48260000D02*
X53340000Y-48260000D01*
%TO.C,MX14*%
X53340000Y-91440000D02*
X67310000Y-91440000D01*
X53340000Y-105410000D02*
X53340000Y-91440000D01*
X67310000Y-91440000D02*
X67310000Y-105410000D01*
X67310000Y-105410000D02*
X53340000Y-105410000D01*
%TO.C,MX11*%
X72390000Y-72390000D02*
X86360000Y-72390000D01*
X72390000Y-86360000D02*
X72390000Y-72390000D01*
X86360000Y-72390000D02*
X86360000Y-86360000D01*
X86360000Y-86360000D02*
X72390000Y-86360000D01*
%TO.C,D1*%
X48212500Y-50778750D02*
X48212500Y-46768750D01*
X48212500Y-50778750D02*
X50212500Y-50778750D01*
X50212500Y-50778750D02*
X50212500Y-46768750D01*
%TO.C,MX12*%
X91440000Y-72390000D02*
X105410000Y-72390000D01*
X91440000Y-86360000D02*
X91440000Y-72390000D01*
X105410000Y-72390000D02*
X105410000Y-86360000D01*
X105410000Y-86360000D02*
X91440000Y-86360000D01*
%TO.C,MX8*%
X91440000Y-53340000D02*
X105410000Y-53340000D01*
X91440000Y-67310000D02*
X91440000Y-53340000D01*
X105410000Y-53340000D02*
X105410000Y-67310000D01*
X105410000Y-67310000D02*
X91440000Y-67310000D01*
%TO.C,D2*%
X67262500Y-50778750D02*
X67262500Y-46768750D01*
X67262500Y-50778750D02*
X69262500Y-50778750D01*
X69262500Y-50778750D02*
X69262500Y-46768750D01*
%TO.C,D15*%
X48212500Y-100785000D02*
X48212500Y-96775000D01*
X48212500Y-100785000D02*
X50212500Y-100785000D01*
X50212500Y-100785000D02*
X50212500Y-96775000D01*
%TO.C,D13*%
X87106250Y-88878750D02*
X87106250Y-84868750D01*
X87106250Y-88878750D02*
X89106250Y-88878750D01*
X89106250Y-88878750D02*
X89106250Y-84868750D01*
%TO.C,D4*%
X67262500Y-69891250D02*
X67262500Y-65881250D01*
X67262500Y-69891250D02*
X69262500Y-69891250D01*
X69262500Y-69891250D02*
X69262500Y-65881250D01*
%TO.C,D17*%
X87106250Y-103166250D02*
X87106250Y-99156250D01*
X87106250Y-103166250D02*
X89106250Y-103166250D01*
X89106250Y-103166250D02*
X89106250Y-99156250D01*
%TO.C,D14*%
X105362500Y-88878750D02*
X105362500Y-84868750D01*
X105362500Y-88878750D02*
X107362500Y-88878750D01*
X107362500Y-88878750D02*
X107362500Y-84868750D01*
%TO.C,MX13*%
X34290000Y-91440000D02*
X48260000Y-91440000D01*
X34290000Y-105410000D02*
X34290000Y-91440000D01*
X48260000Y-91440000D02*
X48260000Y-105410000D01*
X48260000Y-105410000D02*
X34290000Y-105410000D01*
%TO.C,MX16*%
X91440000Y-91440000D02*
X105410000Y-91440000D01*
X91440000Y-105410000D02*
X91440000Y-91440000D01*
X105410000Y-91440000D02*
X105410000Y-105410000D01*
X105410000Y-105410000D02*
X91440000Y-105410000D01*
%TO.C,MX10*%
X53340000Y-72390000D02*
X67310000Y-72390000D01*
X53340000Y-86360000D02*
X53340000Y-72390000D01*
X67310000Y-72390000D02*
X67310000Y-86360000D01*
X67310000Y-86360000D02*
X53340000Y-86360000D01*
%TO.C,D16*%
X68056250Y-101578750D02*
X68056250Y-97568750D01*
X68056250Y-101578750D02*
X70056250Y-101578750D01*
X70056250Y-101578750D02*
X70056250Y-97568750D01*
%TD*%
M02*
